<?xml version="1.0" encoding="UTF-8" standalone="no"?><!DOCTYPE svg PUBLIC "-//W3C//DTD SVG 1.1//EN" "http://www.w3.org/Graphics/SVG/1.1/DTD/svg11.dtd"><svg width="100%" height="100%" viewBox="0 0 480 240" version="1.1" xmlns="http://www.w3.org/2000/svg" xmlns:xlink="http://www.w3.org/1999/xlink" xml:space="preserve" xmlns:serif="http://www.serif.com/" style="fill-rule:evenodd;clip-rule:evenodd;stroke-linecap:round;stroke-linejoin:round;stroke-miterlimit:1.5;"><g id="Delta"><rect x="0" y="0" width="480" height="240" style="fill:#efedea;"/><path d="M143.579,64c6.586,2.395 14.851,5 20.421,5c4.643,0 9.167,-5 13,-5c3.727,0 7.149,3 10,5c2.722,1.909 5.979,3.872 7.105,7c1.5,4.167 1.895,13.333 1.895,18c0,3.393 -0.395,7.5 -1.895,10c-1.49,2.483 -8.587,5 -7.105,5c1.482,0 12.711,-3 16,-5c2.26,-1.374 3.114,-4.667 3.737,-7c0.602,-2.254 -1.211,-5.833 0,-7c1.21,-1.167 5.158,0.667 7.263,0c2.105,-0.667 3.137,-4 5.368,-4c2.334,0 6.193,3.333 8.632,4c1.929,0.527 4.027,-0.329 6,0c2,0.333 5.17,0.062 6,2c1,2.333 2.667,9.667 0,12c-2.667,2.333 -11.667,1.167 -16,2c-3.417,0.657 -10,1.833 -10,3c0,1.167 9.105,0.833 10,4c0.895,3.167 -2.965,11.833 -4.632,15c-1.039,1.975 -4.307,2.167 -5.368,4c-1.061,1.833 -1.895,5.833 -1,7c0.895,1.167 4.246,0 6.368,0c2.167,0 4.527,-0.5 6.632,0c2.105,0.5 5,1 6,3c1,2 0,6 0,9c0,3.5 -0.333,8.333 0,12c0.308,3.385 2,6.601 2,10c0,3.5 -0.726,7.498 -2,11c-1.333,3.667 -3.5,9.833 -6,11c-2.5,1.167 -6.833,-4 -9,-4c-1.886,0 -2.466,2.904 -4,4c-2.333,1.667 -6.12,6.246 -10,6c-5.254,-0.333 -15.833,-6.333 -21.526,-8c-4.092,-1.198 -8.429,-1.287 -12.632,-2c-4.912,-0.833 -13.202,-1.833 -16.842,-3c-2.033,-0.651 -2.883,-3.727 -5,-4c-5.167,-0.667 -18.5,0.667 -26,0c-6.447,-0.573 -13.333,-2.833 -19,-4c-4.994,-1.028 -12.5,1.333 -15,-3c-2.5,-4.333 -0.5,-15.5 0,-23c0.492,-7.385 3,-14.599 3,-22c0,-7.5 -2,-17.167 -3,-23c-0.697,-4.064 -2.627,-7.894 -3,-12c-0.5,-5.5 -1.442,-14.15 0,-21c1.509,-7.167 4.886,-17.5 9.053,-22c3.785,-4.088 10.482,-6.082 15.947,-5c8.421,1.667 25.412,11.667 34.579,15Z" style="fill:#09726f;fill-opacity:0.184314;"/><path d="M309,172c-2.922,0.952 -5.333,4 -7,6c-1.431,1.718 -0.79,5.66 -3,6c-3.246,0.5 -15.474,-1 -16.474,-3c-1,-2 6.728,-6.5 10.474,-9c3.72,-2.483 8.667,-3.5 12,-6c3.211,-2.408 6.167,-7.833 8,-9c1.014,-0.645 3,0.798 3,2c0,1.5 -3.737,6.5 -3,7c0.737,0.5 5.754,-2 7.421,-4c1.667,-2 0.816,-6.167 2.579,-8c1.763,-1.833 6.667,-1 8,-3c1.333,-2 -2.942,-8.412 0,-9c3.333,-0.667 13.515,2.727 20,5c6.658,2.333 15.447,7 19.947,9c2.335,1.038 4.509,3.231 7.053,3c3.675,-0.333 11,-3 15,-5c3.399,-1.7 6.667,-7.333 9,-7c2.333,0.333 4.327,5.635 5,9c0.833,4.167 1.704,10.946 0,16c-1.798,5.333 -4.506,14.621 -10.789,16c-6.834,1.5 -23.009,-5.333 -30.211,-7c-4.333,-1.003 -8.553,-3 -13,-3c-6.167,0 -18.57,4 -24,3c-4.076,-0.751 -5.246,-7.5 -8.579,-9c-3.333,-1.5 -8.351,-1 -11.421,0Zm-46,9c-1.846,0.501 -4.237,0.667 -5.737,0c-1.5,-0.667 -2.052,-2.833 -3.263,-4c-1.2,-1.157 -3.333,-3.667 -4,-3c-0.667,0.667 1.167,5.333 0,7c-1.167,1.667 -5,3.667 -7,3c-2,-0.667 -4.167,-4.5 -5,-7c-0.833,-2.5 -0.833,-6.667 0,-8c0.833,-1.333 3.821,1.179 5,0c1.5,-1.5 3.728,-7 4,-9c0.172,-1.262 -2.156,-1.744 -2.368,-3c-0.395,-2.333 -0.895,-8.833 0,-11c0.728,-1.765 3.807,-2.667 5.368,-2c1.561,0.667 2.789,4.667 4,6c0.858,0.945 2.256,1.217 3.263,2c1.5,1.167 3.296,4.312 5.737,5c2.956,0.833 10,-0.833 12,0c1.538,0.641 -0.5,3.5 0,5c0.5,1.5 2.167,3.333 3,4c0.521,0.416 2.319,-0.585 2,0c-1,1.833 -5.167,8.5 -8,11c-2.462,2.172 -6.544,3.333 -9,4Z" style="fill:#09723a;fill-opacity:0.109804;"/><path d="M49.401,240l-49.401,0l0,-240l26.241,0c8.134,3.188 16.899,7.296 23.759,10c9.162,3.612 20.088,6.833 27.421,11c6.289,3.573 11.702,9.333 16.579,14c4.55,4.353 10.177,10.174 12.684,14c3.453,5.27 11,8.667 16.316,11c4.842,2.126 11.412,2.333 15.579,3c3.118,0.499 6.742,-0.672 9.421,1c2.939,1.833 8.947,9.167 8.211,10c-0.737,0.833 -10.527,-5.833 -12.632,-5c-2.105,0.833 1.617,11.934 1.867,13c0.533,2.271 -0.253,4.614 0.05,6.935c0,0 -0.001,0.024 -0.006,0.062c2.14,4.692 4.654,14.291 6.51,18.003c1.054,2.108 3.246,5.837 5,5c6.057,-2.891 14.871,-2.024 19,2c3.581,3.49 13.089,2.274 19,0c6.5,-2.5 15,-11.833 20,-15c3.033,-1.921 6.508,-3.168 10,-4c3.5,-0.833 7.5,-2 11,-1c3.5,1 6.384,8.865 10,7c3.877,-2 9.43,-14.833 13.263,-19c2.581,-2.806 7.217,-3.139 9.737,-6c2.789,-3.167 2.18,-12.003 7,-13c1.832,-0.379 3.443,-2.163 6.526,-1.485c5.052,1.112 12.039,5.466 15.474,8.485c2.787,2.449 0.583,-5.606 2,-14.13c1.08,-6.501 5.698,-10.274 7.789,-12.87c4.209,-5.224 12.895,-6 19.211,-9c6.244,-2.966 12.142,-6.767 18.684,-9c5.194,-1.773 17.358,-4.52 21.412,-5.441c0.946,-0.215 1.967,-0.316 2.909,-0.084c2.01,0.494 7.571,2.463 9.153,3.051c0.183,0.067 0.329,0.28 0.342,0.474c0.057,0.884 -0.613,3.342 0,4.831c0.721,1.75 1.986,5.254 4.326,5.669c1.98,0.351 5.74,0.77 9.895,1.037c4.614,0.01 9.759,0.013 13.592,-0.001c1.851,-0.203 3.33,-0.535 4.187,-1.036c0.492,-0.288 0.829,-0.679 1.038,-1.149c0.003,-1.169 -0.018,-2.615 -0.03,-3.57c-0.952,-3.632 -3.802,-8.073 -4.138,-9.615c-0.012,-0.055 -0.028,-0.11 -0.028,-0.166c-0.001,-0.224 -0.007,-0.609 -0.014,-1.072c-0.125,-0.706 -0.147,-1.36 -0.022,-1.923c-0.005,-0.843 0.001,-1.624 0.036,-2.005c0.021,-0.235 0.264,-0.495 0.5,-0.5c1.031,-0.02 2.72,0.027 4.763,0.096c-1.912,0.121 -3.438,0.395 -4.263,0.904c-0.572,0.352 -0.897,0.872 -1.036,1.505c0.003,0.656 0.013,1.349 0.022,1.923c0.618,3.51 3.775,8.33 4.144,9.906c0.013,0.055 0.028,0.11 0.028,0.166c0.001,0.181 0.004,0.452 0.008,0.781c0.36,1.372 0.45,2.629 0.03,3.57c-0.002,0.707 -0.012,1.313 -0.038,1.649c-0.018,0.235 -0.264,0.496 -0.5,0.5c-1.022,0.018 -2.674,0.029 -4.687,0.036c-3.704,0.408 -8.9,0.302 -13.592,0.001c-4.389,-0.009 -8.297,-0.024 -10.142,-0.037c-0.148,-0.001 -0.305,-0.081 -0.398,-0.197c-0.829,-1.032 -3.798,-4.949 -4.578,-6c-0.064,-0.085 -0.101,-0.196 -0.103,-0.303c-0.017,-0.824 1.209,-3.675 0,-4.64c-1.662,-1.327 -6.505,-3.815 -9.975,-3.325c-5.469,0.774 -17.917,6.016 -22.841,7.965c-4.334,1.716 -8.851,4.167 -12.631,6c-3.368,1.633 -6.645,3.454 -10.053,5c-3.675,1.667 -9,2.667 -12,5c-2.846,2.214 -4.621,5.668 -6,9c-1.39,3.36 -0.857,12.137 -2.326,17c-0.645,2.132 -2.482,2.39 -3.674,3c-3.912,2 -13.307,-7.333 -17.474,-8c-2.805,-0.449 -5.938,1.833 -7.526,4c-1.588,2.167 -0.08,6.6 -2,9c-2,2.5 -7.459,3.058 -10,6c-3.167,3.667 -6,12.667 -9,16c-2.196,2.44 -6,4.167 -9,4c-3,-0.167 -5.833,-4.167 -9,-5c-3.167,-0.833 -6.807,-0.958 -10,0c-3.333,1 -6.653,4.022 -10,6c-3.667,2.167 -10.5,5.167 -12,7c-1.055,1.29 1.667,3 3,4c1.333,1 3.297,2.568 5,2c2,-0.667 5.167,-6.167 7,-6c1.833,0.167 2.5,5.5 4,7c1.269,1.269 3.666,3.201 5,2c1.667,-1.5 3.5,-9 5,-11c0.825,-1.099 3.5,-2.167 4,-1c0.5,1.167 -0.333,5.667 -1,8c-0.614,2.15 -1.685,4.192 -3,6c-1.333,1.833 -2.695,5.494 -5,5c-2.333,-0.5 -6.667,-7.833 -9,-8c-2.333,-0.167 -3.5,4.833 -5,7c-1.368,1.976 -1.689,5.34 -4,6c-2.333,0.667 -7.518,-1.333 -10,-2c-1.702,-0.457 -5.395,-2.667 -4.895,-2c0.5,0.667 5.079,4.667 7.895,6c2.778,1.315 7.5,1.333 9,2c0.609,0.271 0.11,1.342 0,2c-0.167,1 -0.354,2.787 -1,4c-0.711,1.333 -2.719,3 -3.263,4c-0.319,0.586 0.639,1.81 0,2c-1.123,0.333 -6.614,-1.5 -6.737,0c-0.123,1.5 4.333,8.833 6,9c1.667,0.167 2.833,-6.167 4,-8c0.759,-1.193 2,-2.667 3,-3c1,-0.333 1.946,1 3,1c1.333,0 4,-0.167 5,-1c1,-0.833 0.028,-3.028 1,-4c1,-1 3.833,-2.667 5,-2c1.167,0.667 1.721,4.728 2,6c0.119,0.542 -0.76,1.286 -0.327,1.633c0.834,0.666 3.927,1.019 5.327,2.367c2.66,2.561 7.798,10.667 10.632,13c1.658,1.366 4.287,0.463 6.368,1c3.228,0.833 10.333,2.5 13,4c1.694,0.953 1.167,4.5 3,5c1.833,0.5 5.412,-1.667 8,-2c2.488,-0.321 6.272,1.333 7.526,0c1.255,-1.333 -0.579,-5.667 0,-8c0.557,-2.243 2.212,-4.064 3.474,-6c1.412,-2.167 3.474,-4.833 5,-7c1.401,-1.989 2.658,-4.5 4.158,-6c1.342,-1.343 3.202,-2.5 4.842,-3c1.594,-0.486 4.5,-1.167 5,0c0.5,1.167 -0.833,6.167 -2,7c-1.167,0.833 -3.394,-2.803 -5,-2c-1.667,0.833 -3.667,4.667 -5,7c-1.259,2.204 -1.833,5.333 -3,7c-0.956,1.365 -3.333,1.667 -4,3c-0.667,1.333 -0.833,3.667 0,5c0.833,1.333 3.474,3.167 5,3c1.526,-0.167 2.558,-2.933 4.158,-4c2,-1.333 6.704,-4.083 7.842,-4c1.138,0.083 -1.799,3.75 -1.016,4.5c0.782,0.75 3.873,0.5 5.71,0c3.042,-0.827 10.38,-4.143 12.543,-4.965c0.136,-0.052 0.309,-0.038 0.436,0.033c1.502,0.839 7.132,4.154 8.579,5c0.036,0.021 0.069,0.047 0.099,0.076c0.633,0.621 2.095,4.304 3.698,3.65c2.056,-0.838 6.582,-6.735 8.635,-8.682c1.149,-1.089 2.185,-2.5 3.684,-3c1.5,-0.5 3.548,-0.121 5.316,0c2.158,0.148 5.11,0.442 7.632,0.888c2.749,0.487 5.99,1.065 8.862,2.033c3.464,1.166 7.666,4.317 11.922,4.967c5.424,0.828 16.377,0.583 20.623,0c1.976,-0.271 3.416,-2.173 4.853,-3.5c1.43,-1.32 2.629,-2.882 3.766,-4.461c1.376,-1.912 2.33,-5.342 4.491,-7.01c2.161,-1.669 7.006,-2.657 8.474,-3c0.324,-0.076 0.633,0.797 0.334,0.942c-1.342,0.652 -6.112,1.063 -8.384,2.968c-3.536,2.966 -7.091,12.322 -12.833,14.826c-5.742,2.504 -16.016,0.996 -21.616,0.197c-4.285,-0.612 -7.779,-3.978 -11.986,-4.994c-5.491,-1.327 -16.879,-2.952 -20.96,-2.968c-1.516,-0.006 -2.428,1.826 -3.526,2.871c-2.076,1.976 -7.323,7.484 -8.929,8.982c-0.172,0.16 -0.525,0.154 -0.706,0.003c-0.785,-0.659 -2.48,-2.865 -4.007,-3.956c-2.054,-1.467 -5.107,-4.856 -8.315,-4.846c-3.453,0.011 -10.307,4.087 -12.406,4.911c-0.058,0.023 -0.121,0.035 -0.184,0.035c-1.074,0.006 -4.962,-0.417 -6.261,0c-0.93,0.298 -0.619,2.143 -1.528,2.5c-1.062,0.417 -3.675,-1 -4.842,0c-1.167,1 -0.071,5.598 -2.158,6c-5.193,1 -24.167,0.667 -29,0c-1.321,-0.182 0.925,-3.039 0,-4c-1.123,-1.167 -4.422,-2.173 -6.737,-3c-2.333,-0.833 -5.158,-1.667 -7.263,-2c-1.767,-0.28 -3.879,0.993 -5.368,0c-2,-1.333 -4.86,-6.167 -6.632,-8c-1.158,-1.198 -2.635,-2.044 -4,-3c-1.642,-1.15 -5.017,-5.233 -5.85,-3.9c-0.833,1.333 0.875,8.083 0.85,11.9c-0.008,1.267 0.982,7.287 -0.107,10.866c-0.838,2.755 -3.723,3.249 -4.234,4.026c0.367,1.147 0.582,2.246 0.341,3.108c-0.123,0.44 -0.328,0.933 -0.597,1.435l0.088,0.472c0,0 0.019,0.314 -0.165,0.472c-0.161,0.139 -0.378,0.168 -0.553,0.076c-1.129,1.603 -2.805,2.972 -4.405,2.545c-2.5,-0.667 -7.263,-7.5 -9.368,-9c-0.886,-0.631 -3.109,-1.077 -3.263,0c-0.333,2.333 2.552,11.667 1.263,14c-1.289,2.333 -6.333,0.833 -9,0c-2.667,-0.833 -5.333,-3 -7,-5c-1.625,-1.95 -1,-6.167 -3,-7c-2,-0.833 -6.5,1.167 -9,2c-2.121,0.707 -3.676,2.604 -6,3c-5.861,0.999 -10.169,0.985 -13,-1c-3.183,-2.232 -6.833,-6.5 -9,-8c-1.13,-0.782 -2.644,-0.774 -4,-1c-2,-0.333 -5.317,-1.157 -8,-1c-2.842,0.167 -5.973,1.743 -9.053,2c-4,0.333 -11.456,0.667 -14.947,0c-2.361,-0.451 -4.053,-5.41 -6,-4c-4.054,2.937 -13.597,2.948 -16.947,0c-1.074,-0.945 -3.256,-1.669 -4.243,-0.634c-3.342,3.5 -11.187,13.992 -15.81,21.634c-5.609,9.272 -12.763,25.167 -17.842,34c-2.016,3.507 -3.69,7.438 -5.757,11Zm145.432,-93c-3.861,-3.713 -7.082,-7.162 -12.385,-8.805c-0.978,-0.303 -2.015,-0.163 -2.886,0.288c-2.137,1.11 -3.583,2.274 -4.562,4.517c-0.862,1.915 -3.766,1.638 -6.747,1.452c-2.63,-0.141 -5.359,0.516 -7.618,1.758c-2.11,1.159 -2.522,3.981 -5.462,4.656c-2.045,0.469 -4.131,-0.022 -5.964,-1.491c-1.851,-1.485 -3.721,-3.135 -4.715,-5.268c-0.719,-1.543 0.724,-3.463 -0.028,-5.071c-0.087,-0.186 -0.177,-0.37 -0.27,-0.553c-0.976,-1.918 -2.216,-3.845 -4.005,-4.833c-2.509,-1.386 -5.838,-1.099 -8.809,-0.26c-1.547,0.437 -2.081,2.436 -2.956,3.872c-1.077,1.728 -2.075,3.331 -1.997,5.738c0.097,2.956 0.779,6.091 -0.469,8.52c-0.711,1.384 -1.821,3.739 -3.207,4.108c-1.615,0.428 -2.207,-1.089 -3.909,-0.954c-1.53,0.122 -14.032,5.951 -14.844,7.326c-1.293,2.191 11.833,5.833 17,7c4.552,1.028 9.833,0.167 14,0c3.679,-0.147 7.798,-0.667 11,-1c2.742,-0.285 6.377,-1.667 8.211,-1c1.793,0.652 2.789,3.5 2.789,5c0,1.5 -3.691,2.647 -2.789,4c1.333,2 7.324,6.667 10.789,8c3.111,1.197 7.254,0.667 10,0c2.465,-0.599 4.013,-3.385 6.474,-4c2.666,-0.667 7.272,-1.333 9.526,0c2.254,1.333 1.736,6.06 4,8c2.333,2 8.667,5.333 10,4c1.333,-1.333 -2.5,-9.333 -2,-12c0.393,-2.098 3.167,-3.667 5,-4c1.833,-0.333 4.61,0.726 6,2c1.156,1.06 3.574,6.34 5.368,8c1.31,1.212 2.14,-0.93 2.632,-1c1.167,-0.167 -1.167,-5.667 -1,-8c0.11,-1.534 1.068,-3.5 1.52,-5.271c0.49,-1.917 0.67,-4.439 1.42,-6.229c0.401,-0.959 1.07,-1.778 1.581,-2.667c0.218,-0.393 0.465,-0.883 0.665,-1.29c-0.332,-2.351 -0.72,-4.377 -1.186,-5.543c-0.998,-2.495 -5,-4 -7,-4c-2,0 -3.667,2.5 -5,4c-1.291,1.453 -1.231,4.196 -3,5c-1.833,0.833 -6,1.167 -8,0c-2,-1.167 -3.002,-4.505 -4,-7c-0.906,-2.265 -3.496,-5.051 -3.167,-7Zm32.167,16.535c-0.099,0.162 -2.394,6.388 -3.06,8.465c-0.419,1.304 -1.086,3.049 -0.94,4c0.158,1.024 -0.252,2.383 0.263,3.761c1.376,-1.46 4.695,-2.339 4.402,-4.334c-0.055,-0.374 -0.219,-8.28 -0.665,-11.892Zm-75.918,-50.535c-1.892,-0.333 -4.645,-0.915 -6.225,0c-1.468,0.85 -1.661,2.611 -3.304,3.475c-3.355,1.655 -7.483,4.048 -10.771,2.621c-4.347,-1.885 -7.753,-6.326 -12.466,-7.743c-3.321,-0.999 -6.015,-0.529 -9.141,1.119c-1.368,0.768 -0.907,3.987 -3.491,4.528c-2.387,0.5 -5.389,0.041 -7.85,-0.525c-1.152,-0.322 -1.549,-0.764 -2.567,-1.134c-0.222,-0.08 -1.043,-0.924 -1.267,-1c-1.248,2.549 -1.64,4.716 -2,6.659c-0.61,3.296 1.033,6.648 1.053,10c0.028,4.8 5.213,11.541 5,19c-0.08,2.782 -5.907,9.181 -5.819,10.539c0.061,0.933 1.852,0.658 2.766,0.461c1.961,-0.423 6,-2.167 9,-3c2.754,-0.765 12.767,-4.332 14.612,-4.567c1.774,-0.225 3.401,1.036 5.118,-0.582c3.066,-2.889 1.001,-8.707 1.85,-12.307c0.474,-2.009 1.897,-3.556 2.854,-5.482c0.078,-0.154 0.078,-0.154 0.158,-0.307c0.64,-1.193 1.563,-2.154 3.244,-2.503c1.366,-0.284 2.771,-0.387 4.159,-0.383c1.436,0.017 2.903,0.117 4.201,0.671c2.542,1.086 4.305,3.671 5.333,6.434c0.568,1.628 -0.939,3.411 0.052,5.032c1.291,2.111 3.154,3.964 5.23,5.301c2.035,1.311 4.989,0.973 6.395,-0.848c0.931,-1.205 1.773,-2.509 3.119,-3.218c2.501,-1.318 5.364,-2.393 7.985,-2.241c2.235,0.13 4.135,1.198 5.604,-0.98c1.457,-2.158 3.244,-4.174 5.677,-5.2c1.999,-0.842 4.359,0.307 6.5,1.375c3.777,1.885 7.112,4.514 10.189,7.418c1.443,-1.406 6.566,-1.229 6.72,-2.613c0.167,-1.5 -4.075,-3.927 -6,-6c-2.167,-2.333 -5.833,-5.667 -7,-8c-0.894,-1.789 1.167,-4.5 0,-6c-1.167,-1.5 -4.522,-2.449 -7,-3c-3,-0.667 -7.381,-0.324 -11,-1c-2.685,-0.501 -1.58,-5.114 -5,-6c-2.268,-0.588 -9.261,2.598 -10.789,2c-1.733,-0.678 -3.322,-1.682 -5.129,-2Zm-5.636,-1.647c1.423,-0.318 3.788,-0.906 3.554,-1.353c-2.535,-4.833 -4.667,-20 -8,-24c-2.561,-3.073 -8,0 -12,0c-4,0 -9.04,2.265 -12,0c-8.547,-6.54 -9.028,-5.211 -13,4c-1.869,4.335 -6.132,8.923 -5.947,14c0.104,2.863 -1.295,5.107 -2.786,8.195c0.278,0.098 0.556,1.201 0.835,1.308c0.319,0.126 0.335,0.152 0.465,0.25c0.766,0.58 0.884,1.417 1.851,1.588c2.256,0.367 4.663,0.825 6.706,0.312c1.666,-0.417 1.705,-3.418 3.276,-4.3c1.89,-1.062 5.614,-2.077 8.063,-2.07c5.049,0.058 9.042,4.822 13.661,7.371c3.267,1.803 7.282,0.49 10.699,-1.123c0.053,-0.026 0.104,-0.055 0.156,-0.084c1.686,-1.033 2.243,-3.598 4.467,-4.094Zm-3.893,-33.356c-2.784,-2.062 -7.135,-6.767 -10.606,-8.997c-4.929,-3.167 -12.903,-6.667 -16.947,-9c-2.558,-1.476 -6.096,-5 -7.316,-5c-1.219,0 0.448,3.5 0,5c-0.447,1.5 -1.366,3.084 -2.684,4c-1.439,1 -3.008,-0.363 -5.947,2c-1.299,1.044 2.947,4.667 2.947,6c0,1.187 -2.456,1.167 -2.947,2c-0.492,0.833 0.977,2.789 0,3c-1.541,0.333 -7.703,-2.833 -9.243,-1c-1.541,1.833 0,9 0,12c0,2 -1.901,4.617 0,6c1.416,1.03 6.474,-0.692 7.944,-2.486c1.231,-1.501 2.358,-5.257 3.5,-8.514c0.889,-2.533 2.786,-3.852 3.746,-4c2.636,-0.406 5.442,-0.752 8,0c2.833,0.833 5.59,4.615 9,5c4.43,0.5 13.579,-2.667 17.579,-2c2.366,0.394 3.641,1.856 5,4c-0.382,-2.761 -0.248,-4.923 -1.612,-7.296c-0.136,-0.237 -0.275,-0.472 -0.414,-0.707Zm283.674,-64.085c3.552,0.028 6.782,-0.06 8.691,-0.412c2.935,-0.542 5.49,-4.961 6.754,-5.877c0.245,-0.178 0.788,0.076 0.828,0.377c0.138,1.039 -0.693,4.03 0,5.854c0.459,1.209 1.022,3.112 1.878,4.843c0.493,0.776 0.989,1.554 1.439,2.256c0.616,0.719 1.339,1.276 2.194,1.547c1.232,0.39 2.91,0.75 4.833,1.02c4.035,0.005 9.291,0.001 13.087,-0.008c1.387,-0.235 2.702,-0.567 3.888,-1.012c3.619,-1.358 7.715,-4.94 11.181,-8.315l0,0.382c-4.24,3.521 -8.929,7.372 -10.68,8.817c-0.087,0.072 -0.207,0.115 -0.32,0.116c-0.866,0.004 -2.311,0.009 -4.069,0.012c-4.253,0.726 -9.177,0.555 -13.087,0.008c-2.222,-0.003 -4.073,-0.009 -5.107,-0.02c-0.16,-0.002 -0.333,-0.098 -0.422,-0.231c-0.306,-0.46 -0.855,-1.309 -1.498,-2.316c-0.559,-0.651 -1.032,-1.434 -1.439,-2.256c-1.169,-1.84 -2.321,-3.666 -2.8,-4.428c-0.049,-0.079 -0.077,-0.176 -0.078,-0.269c-0.013,-0.862 1.011,-4.965 0,-4.902c-1.011,0.063 -5.001,4.379 -6.067,5.279c-0.089,0.076 -0.211,0.122 -0.328,0.123c-1.589,0.008 -5.028,-0.312 -8.878,-0.588c-3.932,-0.03 -8.257,-0.203 -11.622,-0.316c3.267,-0.208 7.662,0.031 11.622,0.316Z" style="fill:url(#_Linear1);stroke:#a8caff;stroke-width:1px;"/><path d="M105.888,49l-0.393,1.914l-24.489,-5.028l-24.559,119.61l24.489,5.028l-0.392,1.914l-25.469,-5.229c-0.513,-0.166 -0.854,-0.354 -0.783,-1.158l24.951,-121.525c0.266,-0.81 0.671,-0.802 1.176,-0.755l25.469,5.229Z" style="fill-rule:nonzero;"/><path d="M88.474,46l35.21,-27" style="fill:none;stroke:#000;stroke-width:2px;"/><path d="M125.947,175l25.264,31" style="fill:none;stroke:#000;stroke-width:2px;"/><path d="M168.842,147l-4.631,59" style="fill:none;stroke:#000;stroke-width:2px;"/><path d="M130.947,12.016l1.449,0c0.156,0 0.285,0.039 0.387,0.117c0.102,0.078 0.171,0.177 0.207,0.297l2.664,8.964c0.048,0.162 0.092,0.336 0.131,0.522c0.039,0.186 0.076,0.381 0.112,0.585c0.042,-0.204 0.084,-0.4 0.126,-0.589c0.042,-0.189 0.09,-0.362 0.144,-0.518l3.033,-8.964c0.036,-0.102 0.107,-0.196 0.212,-0.283c0.105,-0.087 0.232,-0.131 0.382,-0.131l0.504,0c0.156,0 0.284,0.039 0.383,0.117c0.099,0.078 0.169,0.177 0.211,0.297l3.015,8.964c0.108,0.312 0.204,0.669 0.288,1.071c0.036,-0.198 0.069,-0.387 0.099,-0.567c0.03,-0.18 0.069,-0.348 0.117,-0.504l2.673,-8.964c0.03,-0.108 0.098,-0.204 0.203,-0.288c0.105,-0.084 0.232,-0.126 0.382,-0.126l1.359,0l-4.023,12.897l-1.566,0l-3.267,-9.837c-0.066,-0.186 -0.126,-0.402 -0.18,-0.648c-0.03,0.12 -0.058,0.236 -0.085,0.347c-0.027,0.111 -0.056,0.211 -0.086,0.301l-3.285,9.837l-1.566,0l-4.023,-12.897Z" style="fill-rule:nonzero;"/><path d="M152.259,15.796l0,9.117l-1.602,0l0,-9.117l1.602,0Zm0.36,-2.862c0,0.156 -0.031,0.301 -0.094,0.437c-0.063,0.135 -0.147,0.255 -0.252,0.36c-0.105,0.105 -0.227,0.187 -0.365,0.247c-0.138,0.06 -0.285,0.09 -0.441,0.09c-0.156,0 -0.301,-0.03 -0.436,-0.09c-0.135,-0.06 -0.255,-0.142 -0.36,-0.247c-0.105,-0.105 -0.188,-0.225 -0.248,-0.36c-0.06,-0.136 -0.09,-0.281 -0.09,-0.437c0,-0.156 0.03,-0.304 0.09,-0.446c0.06,-0.14 0.143,-0.263 0.248,-0.368c0.105,-0.105 0.225,-0.188 0.36,-0.248c0.135,-0.06 0.28,-0.09 0.436,-0.09c0.156,0 0.303,0.03 0.441,0.09c0.138,0.06 0.26,0.143 0.365,0.248c0.105,0.105 0.189,0.228 0.252,0.368c0.063,0.142 0.094,0.29 0.094,0.446Z" style="fill-rule:nonzero;"/><path d="M161.502,24.913c-0.228,0 -0.372,-0.111 -0.432,-0.333l-0.144,-1.107c-0.39,0.474 -0.835,0.854 -1.336,1.139c-0.501,0.285 -1.076,0.427 -1.724,0.427c-0.522,0 -0.996,-0.1 -1.422,-0.301c-0.426,-0.201 -0.789,-0.497 -1.089,-0.887c-0.3,-0.39 -0.531,-0.876 -0.693,-1.458c-0.162,-0.582 -0.243,-1.251 -0.243,-2.007c0,-0.672 0.09,-1.297 0.27,-1.877c0.18,-0.578 0.44,-1.081 0.779,-1.507c0.339,-0.426 0.751,-0.761 1.237,-1.003c0.486,-0.243 1.038,-0.365 1.656,-0.365c0.558,0 1.035,0.095 1.431,0.284c0.396,0.189 0.75,0.454 1.062,0.796l0,-5.058l1.602,0l0,13.257l-0.954,0Zm-3.105,-1.17c0.522,0 0.98,-0.12 1.373,-0.36c0.393,-0.24 0.754,-0.579 1.084,-1.017l0,-4.41c-0.294,-0.396 -0.616,-0.673 -0.967,-0.832c-0.351,-0.159 -0.74,-0.239 -1.166,-0.239c-0.852,0 -1.506,0.303 -1.962,0.909c-0.456,0.606 -0.684,1.47 -0.684,2.592c0,0.594 0.051,1.103 0.153,1.526c0.102,0.423 0.252,0.771 0.45,1.044c0.198,0.273 0.441,0.472 0.729,0.598c0.288,0.126 0.618,0.189 0.99,0.189Z" style="fill-rule:nonzero;"/><path d="M168.756,15.652c0.546,0 1.05,0.092 1.512,0.275c0.462,0.183 0.861,0.447 1.197,0.792c0.336,0.345 0.599,0.771 0.788,1.278c0.189,0.507 0.283,1.084 0.283,1.732c0,0.252 -0.027,0.42 -0.081,0.504c-0.054,0.084 -0.156,0.126 -0.306,0.126l-6.066,0c0.012,0.576 0.09,1.077 0.234,1.503c0.144,0.426 0.342,0.782 0.594,1.066c0.252,0.286 0.552,0.499 0.9,0.64c0.348,0.141 0.738,0.211 1.17,0.211c0.402,0 0.749,-0.046 1.04,-0.139c0.291,-0.093 0.541,-0.194 0.751,-0.302c0.21,-0.108 0.386,-0.208 0.527,-0.301c0.141,-0.093 0.262,-0.14 0.364,-0.14c0.132,0 0.234,0.051 0.306,0.153l0.45,0.585c-0.198,0.24 -0.435,0.448 -0.711,0.626c-0.276,0.177 -0.571,0.322 -0.886,0.436c-0.315,0.114 -0.641,0.2 -0.977,0.257c-0.336,0.057 -0.669,0.085 -0.999,0.085c-0.63,0 -1.21,-0.106 -1.741,-0.319c-0.531,-0.213 -0.99,-0.525 -1.377,-0.937c-0.387,-0.411 -0.689,-0.919 -0.905,-1.525c-0.216,-0.606 -0.324,-1.302 -0.324,-2.088c0,-0.636 0.098,-1.23 0.293,-1.782c0.195,-0.552 0.475,-1.031 0.841,-1.435c0.366,-0.405 0.813,-0.723 1.341,-0.954c0.528,-0.231 1.122,-0.347 1.782,-0.347Zm0.036,1.179c-0.774,0 -1.383,0.223 -1.827,0.671c-0.444,0.447 -0.72,1.066 -0.828,1.858l4.959,0c0,-0.372 -0.051,-0.712 -0.153,-1.021c-0.102,-0.309 -0.252,-0.577 -0.45,-0.801c-0.198,-0.225 -0.439,-0.399 -0.724,-0.523c-0.285,-0.122 -0.611,-0.184 -0.977,-0.184Z" style="fill-rule:nonzero;"/><path d="M183.273,17.299c-0.072,0.132 -0.183,0.198 -0.333,0.198c-0.09,0 -0.192,-0.033 -0.306,-0.099c-0.114,-0.066 -0.253,-0.139 -0.418,-0.22c-0.165,-0.081 -0.362,-0.156 -0.59,-0.225c-0.228,-0.069 -0.498,-0.104 -0.81,-0.104c-0.27,0 -0.513,0.035 -0.729,0.104c-0.216,0.069 -0.4,0.163 -0.553,0.283c-0.153,0.12 -0.27,0.26 -0.351,0.418c-0.081,0.16 -0.122,0.332 -0.122,0.518c0,0.234 0.068,0.429 0.203,0.585c0.135,0.156 0.313,0.291 0.535,0.405c0.222,0.114 0.474,0.215 0.756,0.302c0.282,0.087 0.572,0.18 0.869,0.279c0.297,0.099 0.586,0.208 0.868,0.328c0.282,0.12 0.534,0.27 0.756,0.45c0.222,0.18 0.401,0.401 0.536,0.662c0.135,0.261 0.202,0.574 0.202,0.94c0,0.42 -0.075,0.809 -0.225,1.166c-0.15,0.357 -0.372,0.666 -0.666,0.927c-0.294,0.261 -0.654,0.466 -1.08,0.616c-0.426,0.15 -0.918,0.225 -1.476,0.225c-0.636,0 -1.212,-0.103 -1.728,-0.31c-0.516,-0.207 -0.954,-0.473 -1.314,-0.797l0.378,-0.612c0.048,-0.078 0.105,-0.138 0.171,-0.18c0.066,-0.042 0.153,-0.063 0.261,-0.063c0.108,0 0.222,0.042 0.342,0.126c0.12,0.084 0.266,0.177 0.437,0.279c0.171,0.102 0.378,0.195 0.621,0.279c0.243,0.084 0.547,0.126 0.913,0.126c0.312,0 0.585,-0.041 0.819,-0.122c0.234,-0.081 0.429,-0.19 0.585,-0.328c0.156,-0.138 0.272,-0.297 0.347,-0.477c0.075,-0.18 0.112,-0.372 0.112,-0.576c0,-0.252 -0.067,-0.46 -0.202,-0.625c-0.135,-0.165 -0.314,-0.306 -0.536,-0.423c-0.222,-0.118 -0.475,-0.22 -0.76,-0.306c-0.285,-0.087 -0.576,-0.179 -0.873,-0.275c-0.297,-0.096 -0.588,-0.206 -0.873,-0.328c-0.285,-0.123 -0.539,-0.278 -0.761,-0.464c-0.222,-0.186 -0.4,-0.415 -0.535,-0.688c-0.135,-0.274 -0.203,-0.605 -0.203,-0.995c0,-0.348 0.072,-0.682 0.216,-1.003c0.144,-0.322 0.354,-0.603 0.63,-0.846c0.276,-0.243 0.615,-0.437 1.017,-0.581c0.402,-0.144 0.861,-0.216 1.377,-0.216c0.6,0 1.139,0.094 1.616,0.284c0.477,0.188 0.889,0.448 1.237,0.778l-0.36,0.585Z" style="fill-rule:nonzero;"/><path d="M189.474,15.652c0.546,0 1.05,0.092 1.512,0.275c0.462,0.183 0.861,0.447 1.197,0.792c0.336,0.345 0.599,0.771 0.788,1.278c0.189,0.507 0.283,1.084 0.283,1.732c0,0.252 -0.027,0.42 -0.081,0.504c-0.054,0.084 -0.156,0.126 -0.306,0.126l-6.066,0c0.012,0.576 0.09,1.077 0.234,1.503c0.144,0.426 0.342,0.782 0.594,1.066c0.252,0.286 0.552,0.499 0.9,0.64c0.348,0.141 0.738,0.211 1.17,0.211c0.402,0 0.749,-0.046 1.04,-0.139c0.291,-0.093 0.541,-0.194 0.751,-0.302c0.21,-0.108 0.386,-0.208 0.527,-0.301c0.141,-0.093 0.262,-0.14 0.364,-0.14c0.132,0 0.234,0.051 0.306,0.153l0.45,0.585c-0.198,0.24 -0.435,0.448 -0.711,0.626c-0.276,0.177 -0.571,0.322 -0.886,0.436c-0.315,0.114 -0.641,0.2 -0.977,0.257c-0.336,0.057 -0.669,0.085 -0.999,0.085c-0.63,0 -1.21,-0.106 -1.741,-0.319c-0.531,-0.213 -0.99,-0.525 -1.377,-0.937c-0.387,-0.411 -0.689,-0.919 -0.905,-1.525c-0.216,-0.606 -0.324,-1.302 -0.324,-2.088c0,-0.636 0.098,-1.23 0.293,-1.782c0.195,-0.552 0.475,-1.031 0.841,-1.435c0.366,-0.405 0.813,-0.723 1.341,-0.954c0.528,-0.231 1.122,-0.347 1.782,-0.347Zm0.036,1.179c-0.774,0 -1.383,0.223 -1.827,0.671c-0.444,0.447 -0.72,1.066 -0.828,1.858l4.959,0c0,-0.372 -0.051,-0.712 -0.153,-1.021c-0.102,-0.309 -0.252,-0.577 -0.45,-0.801c-0.198,-0.225 -0.439,-0.399 -0.724,-0.523c-0.285,-0.122 -0.611,-0.184 -0.977,-0.184Z" style="fill-rule:nonzero;"/><path d="M201.714,24.913c-0.228,0 -0.372,-0.111 -0.432,-0.333l-0.144,-1.107c-0.39,0.474 -0.835,0.854 -1.336,1.139c-0.501,0.285 -1.076,0.427 -1.724,0.427c-0.522,0 -0.996,-0.1 -1.422,-0.301c-0.426,-0.201 -0.789,-0.497 -1.089,-0.887c-0.3,-0.39 -0.531,-0.876 -0.693,-1.458c-0.162,-0.582 -0.243,-1.251 -0.243,-2.007c0,-0.672 0.09,-1.297 0.27,-1.877c0.18,-0.578 0.44,-1.081 0.779,-1.507c0.339,-0.426 0.751,-0.761 1.237,-1.003c0.486,-0.243 1.038,-0.365 1.656,-0.365c0.558,0 1.035,0.095 1.431,0.284c0.396,0.189 0.75,0.454 1.062,0.796l0,-5.058l1.602,0l0,13.257l-0.954,0Zm-3.105,-1.17c0.522,0 0.98,-0.12 1.373,-0.36c0.393,-0.24 0.754,-0.579 1.084,-1.017l0,-4.41c-0.294,-0.396 -0.616,-0.673 -0.967,-0.832c-0.351,-0.159 -0.74,-0.239 -1.166,-0.239c-0.852,0 -1.506,0.303 -1.962,0.909c-0.456,0.606 -0.684,1.47 -0.684,2.592c0,0.594 0.051,1.103 0.153,1.526c0.102,0.423 0.252,0.771 0.45,1.044c0.198,0.273 0.441,0.472 0.729,0.598c0.288,0.126 0.618,0.189 0.99,0.189Z" style="fill-rule:nonzero;"/><path d="M207.141,15.796l0,9.117l-1.602,0l0,-9.117l1.602,0Zm0.36,-2.862c0,0.156 -0.031,0.301 -0.094,0.437c-0.063,0.135 -0.147,0.255 -0.252,0.36c-0.105,0.105 -0.227,0.187 -0.365,0.247c-0.138,0.06 -0.285,0.09 -0.441,0.09c-0.156,0 -0.301,-0.03 -0.436,-0.09c-0.135,-0.06 -0.255,-0.142 -0.36,-0.247c-0.105,-0.105 -0.188,-0.225 -0.248,-0.36c-0.06,-0.136 -0.09,-0.281 -0.09,-0.437c0,-0.156 0.03,-0.304 0.09,-0.446c0.06,-0.14 0.143,-0.263 0.248,-0.368c0.105,-0.105 0.225,-0.188 0.36,-0.248c0.135,-0.06 0.28,-0.09 0.436,-0.09c0.156,0 0.303,0.03 0.441,0.09c0.138,0.06 0.26,0.143 0.365,0.248c0.105,0.105 0.189,0.228 0.252,0.368c0.063,0.142 0.094,0.29 0.094,0.446Z" style="fill-rule:nonzero;"/><path d="M209.967,24.913l0,-9.117l0.954,0c0.228,0 0.372,0.111 0.432,0.333l0.117,0.936c0.336,-0.414 0.713,-0.753 1.13,-1.017c0.417,-0.264 0.901,-0.396 1.453,-0.396c0.618,0 1.118,0.171 1.499,0.513c0.381,0.342 0.655,0.804 0.823,1.386c0.126,-0.33 0.293,-0.615 0.5,-0.855c0.207,-0.24 0.439,-0.438 0.697,-0.594c0.258,-0.156 0.533,-0.27 0.824,-0.342c0.291,-0.072 0.586,-0.108 0.886,-0.108c0.48,0 0.908,0.077 1.283,0.23c0.375,0.153 0.693,0.376 0.954,0.67c0.261,0.294 0.46,0.656 0.598,1.085c0.138,0.429 0.207,0.919 0.207,1.471l0,5.805l-1.602,0l0,-5.805c0,-0.714 -0.156,-1.255 -0.468,-1.624c-0.312,-0.369 -0.765,-0.554 -1.359,-0.554c-0.264,0 -0.514,0.047 -0.751,0.14c-0.237,0.093 -0.446,0.229 -0.626,0.409c-0.18,0.18 -0.322,0.407 -0.427,0.68c-0.105,0.273 -0.158,0.589 -0.158,0.949l0,5.805l-1.602,0l0,-5.805c0,-0.732 -0.147,-1.278 -0.441,-1.638c-0.294,-0.36 -0.723,-0.54 -1.287,-0.54c-0.396,0 -0.763,0.107 -1.102,0.32c-0.339,0.213 -0.65,0.502 -0.932,0.868l0,6.795l-1.602,0Z" style="fill-rule:nonzero;"/><path d="M228.354,15.652c0.546,0 1.05,0.092 1.512,0.275c0.462,0.183 0.861,0.447 1.197,0.792c0.336,0.345 0.599,0.771 0.788,1.278c0.189,0.507 0.283,1.084 0.283,1.732c0,0.252 -0.027,0.42 -0.081,0.504c-0.054,0.084 -0.156,0.126 -0.306,0.126l-6.066,0c0.012,0.576 0.09,1.077 0.234,1.503c0.144,0.426 0.342,0.782 0.594,1.066c0.252,0.286 0.552,0.499 0.9,0.64c0.348,0.141 0.738,0.211 1.17,0.211c0.402,0 0.749,-0.046 1.04,-0.139c0.291,-0.093 0.541,-0.194 0.751,-0.302c0.21,-0.108 0.386,-0.208 0.527,-0.301c0.141,-0.093 0.262,-0.14 0.364,-0.14c0.132,0 0.234,0.051 0.306,0.153l0.45,0.585c-0.198,0.24 -0.435,0.448 -0.711,0.626c-0.276,0.177 -0.571,0.322 -0.886,0.436c-0.315,0.114 -0.641,0.2 -0.977,0.257c-0.336,0.057 -0.669,0.085 -0.999,0.085c-0.63,0 -1.21,-0.106 -1.741,-0.319c-0.531,-0.213 -0.99,-0.525 -1.377,-0.937c-0.387,-0.411 -0.689,-0.919 -0.905,-1.525c-0.216,-0.606 -0.324,-1.302 -0.324,-2.088c0,-0.636 0.098,-1.23 0.293,-1.782c0.195,-0.552 0.475,-1.031 0.841,-1.435c0.366,-0.405 0.813,-0.723 1.341,-0.954c0.528,-0.231 1.122,-0.347 1.782,-0.347Zm0.036,1.179c-0.774,0 -1.383,0.223 -1.827,0.671c-0.444,0.447 -0.72,1.066 -0.828,1.858l4.959,0c0,-0.372 -0.051,-0.712 -0.153,-1.021c-0.102,-0.309 -0.252,-0.577 -0.45,-0.801c-0.198,-0.225 -0.439,-0.399 -0.724,-0.523c-0.285,-0.122 -0.611,-0.184 -0.977,-0.184Z" style="fill-rule:nonzero;"/><path d="M234.177,24.913l0,-9.117l0.954,0c0.228,0 0.372,0.111 0.432,0.333l0.126,0.99c0.396,-0.438 0.839,-0.792 1.328,-1.062c0.489,-0.27 1.054,-0.405 1.696,-0.405c0.498,0 0.938,0.083 1.319,0.248c0.381,0.165 0.699,0.399 0.954,0.702c0.255,0.303 0.448,0.667 0.58,1.093c0.132,0.426 0.198,0.897 0.198,1.413l0,5.805l-1.602,0l0,-5.805c0,-0.69 -0.157,-1.225 -0.472,-1.606c-0.315,-0.381 -0.797,-0.572 -1.445,-0.572c-0.474,0 -0.916,0.114 -1.327,0.342c-0.411,0.228 -0.791,0.537 -1.139,0.927l0,6.714l-1.602,0Z" style="fill-rule:nonzero;"/><path d="M246.948,25.057c-0.72,0 -1.273,-0.201 -1.66,-0.603c-0.387,-0.402 -0.581,-0.981 -0.581,-1.737l0,-5.58l-1.098,0c-0.096,0 -0.177,-0.028 -0.243,-0.085c-0.066,-0.057 -0.099,-0.146 -0.099,-0.266l0,-0.639l1.494,-0.189l0.369,-2.817c0.012,-0.09 0.051,-0.163 0.117,-0.22c0.066,-0.057 0.15,-0.086 0.252,-0.086l0.81,0l0,3.141l2.61,0l0,1.161l-2.61,0l0,5.472c0,0.384 0.093,0.669 0.279,0.855c0.186,0.186 0.426,0.279 0.72,0.279c0.168,0 0.314,-0.022 0.437,-0.068c0.123,-0.044 0.229,-0.094 0.319,-0.148c0.09,-0.054 0.167,-0.103 0.23,-0.148c0.063,-0.046 0.118,-0.068 0.166,-0.068c0.084,0 0.159,0.051 0.225,0.153l0.468,0.765c-0.276,0.258 -0.609,0.461 -0.999,0.608c-0.39,0.147 -0.792,0.22 -1.206,0.22Z" style="fill-rule:nonzero;"/><path d="M257.595,24.913l-0.711,0c-0.156,0 -0.282,-0.024 -0.378,-0.072c-0.096,-0.048 -0.159,-0.15 -0.189,-0.306l-0.18,-0.846c-0.24,0.216 -0.474,0.41 -0.702,0.581c-0.228,0.171 -0.468,0.315 -0.72,0.432c-0.252,0.117 -0.52,0.205 -0.805,0.265c-0.285,0.06 -0.602,0.09 -0.95,0.09c-0.354,0 -0.685,-0.049 -0.994,-0.148c-0.309,-0.099 -0.578,-0.248 -0.806,-0.446c-0.228,-0.198 -0.409,-0.448 -0.544,-0.751c-0.135,-0.303 -0.203,-0.662 -0.203,-1.076c0,-0.36 0.099,-0.706 0.297,-1.039c0.198,-0.333 0.518,-0.629 0.959,-0.887c0.441,-0.258 1.018,-0.469 1.732,-0.634c0.714,-0.165 1.587,-0.26 2.619,-0.284l0,-0.711c0,-0.708 -0.151,-1.243 -0.454,-1.606c-0.303,-0.363 -0.752,-0.545 -1.346,-0.545c-0.39,0 -0.718,0.05 -0.985,0.149c-0.267,0.099 -0.498,0.21 -0.693,0.333c-0.195,0.123 -0.363,0.234 -0.504,0.333c-0.141,0.099 -0.281,0.148 -0.419,0.148c-0.108,0 -0.202,-0.028 -0.283,-0.085c-0.081,-0.057 -0.146,-0.128 -0.194,-0.212l-0.288,-0.513c0.504,-0.486 1.047,-0.849 1.629,-1.089c0.582,-0.24 1.227,-0.36 1.935,-0.36c0.51,0 0.963,0.084 1.359,0.252c0.396,0.168 0.729,0.402 0.999,0.702c0.27,0.3 0.474,0.663 0.612,1.089c0.138,0.426 0.207,0.894 0.207,1.404l0,5.832Zm-4.158,-0.981c0.282,0 0.54,-0.028 0.774,-0.085c0.234,-0.057 0.455,-0.138 0.662,-0.243c0.207,-0.105 0.405,-0.233 0.594,-0.383c0.189,-0.15 0.373,-0.321 0.553,-0.513l0,-1.899c-0.738,0.024 -1.365,0.083 -1.881,0.176c-0.516,0.093 -0.936,0.214 -1.26,0.364c-0.324,0.15 -0.559,0.327 -0.706,0.531c-0.147,0.204 -0.221,0.432 -0.221,0.684c0,0.24 0.039,0.447 0.117,0.621c0.078,0.174 0.183,0.317 0.315,0.428c0.132,0.111 0.288,0.192 0.468,0.243c0.18,0.051 0.375,0.076 0.585,0.076Z" style="fill-rule:nonzero;"/><path d="M260.025,24.913l0,-9.117l0.918,0c0.174,0 0.294,0.033 0.36,0.099c0.066,0.066 0.111,0.18 0.135,0.342l0.108,1.422c0.312,-0.636 0.698,-1.133 1.157,-1.489c0.459,-0.357 0.997,-0.536 1.615,-0.536c0.252,0 0.48,0.029 0.684,0.086c0.204,0.057 0.393,0.136 0.567,0.238l-0.207,1.197c-0.042,0.15 -0.135,0.225 -0.279,0.225c-0.084,0 -0.213,-0.028 -0.387,-0.085c-0.174,-0.057 -0.417,-0.086 -0.729,-0.086c-0.558,0 -1.024,0.162 -1.399,0.486c-0.375,0.324 -0.689,0.795 -0.941,1.413l0,5.805l-1.602,0Z" style="fill-rule:nonzero;"/><path d="M269.952,27.604c-0.054,0.12 -0.121,0.216 -0.202,0.288c-0.081,0.072 -0.206,0.108 -0.374,0.108l-1.188,0l1.665,-3.618l-3.762,-8.586l1.386,0c0.138,0 0.246,0.035 0.324,0.104c0.078,0.069 0.135,0.145 0.171,0.229l2.439,5.742c0.054,0.132 0.101,0.264 0.14,0.396c0.039,0.132 0.073,0.267 0.103,0.405c0.042,-0.138 0.084,-0.273 0.126,-0.405c0.042,-0.132 0.09,-0.267 0.144,-0.405l2.367,-5.733c0.036,-0.096 0.098,-0.175 0.185,-0.238c0.087,-0.063 0.181,-0.095 0.283,-0.095l1.278,0l-5.085,11.808Z" style="fill-rule:nonzero;"/><path d="M279.969,28l0,-12.204l0.954,0c0.228,0 0.372,0.111 0.432,0.333l0.135,1.08c0.39,-0.474 0.836,-0.855 1.337,-1.143c0.501,-0.288 1.078,-0.432 1.732,-0.432c0.522,0 0.996,0.101 1.422,0.302c0.426,0.201 0.789,0.498 1.089,0.891c0.3,0.393 0.531,0.88 0.693,1.462c0.162,0.582 0.243,1.251 0.243,2.007c0,0.672 -0.09,1.298 -0.27,1.877c-0.18,0.579 -0.438,1.08 -0.774,1.503c-0.336,0.423 -0.748,0.756 -1.237,0.999c-0.489,0.243 -1.04,0.364 -1.652,0.364c-0.564,0 -1.045,-0.093 -1.444,-0.279c-0.399,-0.186 -0.752,-0.45 -1.058,-0.792l0,4.032l-1.602,0Zm4.059,-11.07c-0.522,0 -0.979,0.12 -1.372,0.36c-0.393,0.24 -0.755,0.579 -1.085,1.017l0,4.41c0.294,0.396 0.617,0.675 0.968,0.837c0.351,0.162 0.742,0.243 1.174,0.243c0.846,0 1.497,-0.303 1.953,-0.909c0.456,-0.606 0.684,-1.47 0.684,-2.592c0,-0.594 -0.052,-1.104 -0.157,-1.53c-0.105,-0.426 -0.257,-0.775 -0.455,-1.048c-0.198,-0.273 -0.441,-0.473 -0.729,-0.599c-0.288,-0.126 -0.615,-0.189 -0.981,-0.189Z" style="fill-rule:nonzero;"/><rect x="290.085" y="11.656" width="1.602" height="13.257" style="fill-rule:nonzero;"/><path d="M301.209,24.913l-0.711,0c-0.156,0 -0.282,-0.024 -0.378,-0.072c-0.096,-0.048 -0.159,-0.15 -0.189,-0.306l-0.18,-0.846c-0.24,0.216 -0.474,0.41 -0.702,0.581c-0.228,0.171 -0.468,0.315 -0.72,0.432c-0.252,0.117 -0.52,0.205 -0.805,0.265c-0.285,0.06 -0.602,0.09 -0.95,0.09c-0.354,0 -0.685,-0.049 -0.994,-0.148c-0.309,-0.099 -0.578,-0.248 -0.806,-0.446c-0.228,-0.198 -0.409,-0.448 -0.544,-0.751c-0.135,-0.303 -0.203,-0.662 -0.203,-1.076c0,-0.36 0.099,-0.706 0.297,-1.039c0.198,-0.333 0.518,-0.629 0.959,-0.887c0.441,-0.258 1.018,-0.469 1.732,-0.634c0.714,-0.165 1.587,-0.26 2.619,-0.284l0,-0.711c0,-0.708 -0.151,-1.243 -0.454,-1.606c-0.303,-0.363 -0.752,-0.545 -1.346,-0.545c-0.39,0 -0.718,0.05 -0.985,0.149c-0.267,0.099 -0.498,0.21 -0.693,0.333c-0.195,0.123 -0.363,0.234 -0.504,0.333c-0.141,0.099 -0.281,0.148 -0.419,0.148c-0.108,0 -0.202,-0.028 -0.283,-0.085c-0.081,-0.057 -0.146,-0.128 -0.194,-0.212l-0.288,-0.513c0.504,-0.486 1.047,-0.849 1.629,-1.089c0.582,-0.24 1.227,-0.36 1.935,-0.36c0.51,0 0.963,0.084 1.359,0.252c0.396,0.168 0.729,0.402 0.999,0.702c0.27,0.3 0.474,0.663 0.612,1.089c0.138,0.426 0.207,0.894 0.207,1.404l0,5.832Zm-4.158,-0.981c0.282,0 0.54,-0.028 0.774,-0.085c0.234,-0.057 0.455,-0.138 0.662,-0.243c0.207,-0.105 0.405,-0.233 0.594,-0.383c0.189,-0.15 0.373,-0.321 0.553,-0.513l0,-1.899c-0.738,0.024 -1.365,0.083 -1.881,0.176c-0.516,0.093 -0.936,0.214 -1.26,0.364c-0.324,0.15 -0.559,0.327 -0.706,0.531c-0.147,0.204 -0.221,0.432 -0.221,0.684c0,0.24 0.039,0.447 0.117,0.621c0.078,0.174 0.183,0.317 0.315,0.428c0.132,0.111 0.288,0.192 0.468,0.243c0.18,0.051 0.375,0.076 0.585,0.076Z" style="fill-rule:nonzero;"/><path d="M305.421,15.796l0,9.117l-1.602,0l0,-9.117l1.602,0Zm0.36,-2.862c0,0.156 -0.031,0.301 -0.094,0.437c-0.063,0.135 -0.147,0.255 -0.252,0.36c-0.105,0.105 -0.227,0.187 -0.365,0.247c-0.138,0.06 -0.285,0.09 -0.441,0.09c-0.156,0 -0.301,-0.03 -0.436,-0.09c-0.135,-0.06 -0.255,-0.142 -0.36,-0.247c-0.105,-0.105 -0.188,-0.225 -0.248,-0.36c-0.06,-0.136 -0.09,-0.281 -0.09,-0.437c0,-0.156 0.03,-0.304 0.09,-0.446c0.06,-0.14 0.143,-0.263 0.248,-0.368c0.105,-0.105 0.225,-0.188 0.36,-0.248c0.135,-0.06 0.28,-0.09 0.436,-0.09c0.156,0 0.303,0.03 0.441,0.09c0.138,0.06 0.26,0.143 0.365,0.248c0.105,0.105 0.189,0.228 0.252,0.368c0.063,0.142 0.094,0.29 0.094,0.446Z" style="fill-rule:nonzero;"/><path d="M308.247,24.913l0,-9.117l0.954,0c0.228,0 0.372,0.111 0.432,0.333l0.126,0.99c0.396,-0.438 0.839,-0.792 1.328,-1.062c0.489,-0.27 1.054,-0.405 1.696,-0.405c0.498,0 0.938,0.083 1.319,0.248c0.381,0.165 0.699,0.399 0.954,0.702c0.255,0.303 0.448,0.667 0.58,1.093c0.132,0.426 0.198,0.897 0.198,1.413l0,5.805l-1.602,0l0,-5.805c0,-0.69 -0.157,-1.225 -0.472,-1.606c-0.315,-0.381 -0.797,-0.572 -1.445,-0.572c-0.474,0 -0.916,0.114 -1.327,0.342c-0.411,0.228 -0.791,0.537 -1.139,0.927l0,6.714l-1.602,0Z" style="fill-rule:nonzero;"/><path d="M99.398,221.251c0.084,0.144 0.157,0.296 0.22,0.455c0.063,0.159 0.125,0.319 0.185,0.481c0.06,-0.168 0.123,-0.329 0.189,-0.481c0.066,-0.154 0.141,-0.308 0.225,-0.464l4.365,-7.929c0.078,-0.138 0.159,-0.222 0.243,-0.252c0.084,-0.03 0.204,-0.045 0.36,-0.045l1.287,0l0,12.897l-1.53,0l0,-9.477c0,-0.126 0.003,-0.261 0.009,-0.405c0.006,-0.144 0.015,-0.291 0.027,-0.441l-4.419,8.064c-0.15,0.27 -0.36,0.405 -0.63,0.405l-0.252,0c-0.27,0 -0.48,-0.135 -0.63,-0.405l-4.518,-8.091c0.018,0.156 0.031,0.309 0.04,0.459c0.009,0.15 0.014,0.288 0.014,0.414l0,9.477l-1.53,0l0,-12.897l1.287,0c0.156,0 0.276,0.015 0.36,0.045c0.084,0.03 0.165,0.114 0.243,0.252l4.455,7.938Z" style="fill-rule:nonzero;"/><path d="M110.747,216.796l0,5.814c0,0.69 0.159,1.224 0.477,1.602c0.318,0.378 0.798,0.567 1.44,0.567c0.468,0 0.909,-0.111 1.323,-0.333c0.414,-0.222 0.795,-0.531 1.143,-0.927l0,-6.723l1.602,0l0,9.117l-0.954,0c-0.228,0 -0.372,-0.111 -0.432,-0.333l-0.126,-0.981c-0.396,0.438 -0.84,0.791 -1.332,1.058c-0.492,0.267 -1.056,0.4 -1.692,0.4c-0.498,0 -0.938,-0.082 -1.319,-0.247c-0.381,-0.165 -0.7,-0.398 -0.958,-0.698c-0.258,-0.3 -0.452,-0.663 -0.581,-1.089c-0.129,-0.426 -0.193,-0.897 -0.193,-1.413l0,-5.814l1.602,0Z" style="fill-rule:nonzero;"/><rect x="119.549" y="212.656" width="1.602" height="13.257" style="fill-rule:nonzero;"/><path d="M126.74,226.057c-0.72,0 -1.274,-0.201 -1.661,-0.603c-0.387,-0.402 -0.58,-0.981 -0.58,-1.737l0,-5.58l-1.098,0c-0.096,0 -0.177,-0.029 -0.243,-0.085c-0.066,-0.057 -0.099,-0.146 -0.099,-0.266l0,-0.639l1.494,-0.189l0.369,-2.817c0.012,-0.09 0.051,-0.163 0.117,-0.22c0.066,-0.057 0.15,-0.086 0.252,-0.086l0.81,0l0,3.141l2.61,0l0,1.161l-2.61,0l0,5.472c0,0.384 0.093,0.669 0.279,0.855c0.186,0.186 0.426,0.279 0.72,0.279c0.168,0 0.313,-0.022 0.436,-0.067c0.123,-0.045 0.23,-0.095 0.32,-0.149c0.09,-0.054 0.166,-0.103 0.229,-0.148c0.063,-0.045 0.119,-0.068 0.167,-0.068c0.084,0 0.159,0.051 0.225,0.153l0.468,0.765c-0.276,0.258 -0.609,0.461 -0.999,0.608c-0.39,0.147 -0.792,0.22 -1.206,0.22Z" style="fill-rule:nonzero;"/><path d="M132.473,216.796l0,9.117l-1.602,0l0,-9.117l1.602,0Zm0.36,-2.862c0,0.156 -0.032,0.302 -0.095,0.436c-0.063,0.136 -0.147,0.256 -0.252,0.361c-0.105,0.105 -0.226,0.187 -0.364,0.247c-0.138,0.06 -0.285,0.09 -0.441,0.09c-0.156,0 -0.302,-0.03 -0.437,-0.09c-0.135,-0.06 -0.255,-0.142 -0.36,-0.248c-0.105,-0.105 -0.187,-0.225 -0.247,-0.36c-0.06,-0.135 -0.09,-0.28 -0.09,-0.436c0,-0.156 0.03,-0.304 0.09,-0.446c0.06,-0.14 0.142,-0.263 0.247,-0.368c0.105,-0.106 0.225,-0.188 0.36,-0.248c0.135,-0.06 0.281,-0.09 0.437,-0.09c0.156,0 0.303,0.03 0.441,0.09c0.138,0.06 0.259,0.142 0.364,0.248c0.105,0.105 0.189,0.228 0.252,0.368c0.063,0.142 0.095,0.29 0.095,0.446Z" style="fill-rule:nonzero;"/><path d="M135.299,229l0,-12.204l0.954,0c0.228,0 0.372,0.111 0.432,0.333l0.135,1.08c0.39,-0.474 0.835,-0.855 1.336,-1.143c0.501,-0.288 1.079,-0.432 1.733,-0.432c0.522,0 0.996,0.101 1.422,0.302c0.426,0.201 0.789,0.498 1.089,0.891c0.3,0.393 0.531,0.88 0.693,1.462c0.162,0.582 0.243,1.251 0.243,2.007c0,0.672 -0.09,1.298 -0.27,1.877c-0.18,0.579 -0.438,1.079 -0.774,1.502c-0.336,0.423 -0.749,0.757 -1.238,1c-0.489,0.243 -1.039,0.364 -1.651,0.364c-0.564,0 -1.046,-0.093 -1.445,-0.279c-0.399,-0.186 -0.751,-0.45 -1.057,-0.792l0,4.032l-1.602,0Zm4.059,-11.07c-0.522,0 -0.98,0.12 -1.373,0.36c-0.393,0.24 -0.754,0.579 -1.084,1.017l0,4.41c0.294,0.396 0.616,0.675 0.967,0.837c0.351,0.162 0.743,0.243 1.175,0.243c0.846,0 1.497,-0.303 1.953,-0.909c0.456,-0.606 0.684,-1.47 0.684,-2.592c0,-0.594 -0.053,-1.104 -0.158,-1.53c-0.105,-0.426 -0.256,-0.776 -0.454,-1.048c-0.198,-0.274 -0.441,-0.473 -0.729,-0.599c-0.288,-0.126 -0.615,-0.189 -0.981,-0.189Z" style="fill-rule:nonzero;"/><rect x="145.415" y="212.656" width="1.602" height="13.257" style="fill-rule:nonzero;"/><path d="M153.452,216.652c0.546,0 1.05,0.091 1.512,0.274c0.462,0.184 0.861,0.447 1.197,0.792c0.336,0.346 0.598,0.772 0.787,1.279c0.189,0.507 0.284,1.084 0.284,1.732c0,0.252 -0.027,0.42 -0.081,0.504c-0.054,0.084 -0.156,0.126 -0.306,0.126l-6.066,0c0.012,0.576 0.09,1.077 0.234,1.503c0.144,0.426 0.342,0.781 0.594,1.066c0.252,0.285 0.552,0.498 0.9,0.639c0.348,0.141 0.738,0.212 1.17,0.212c0.402,0 0.748,-0.047 1.039,-0.14c0.291,-0.093 0.542,-0.193 0.752,-0.301c0.21,-0.108 0.385,-0.209 0.526,-0.302c0.141,-0.093 0.263,-0.139 0.365,-0.139c0.132,0 0.234,0.051 0.306,0.153l0.45,0.585c-0.198,0.24 -0.435,0.448 -0.711,0.625c-0.276,0.177 -0.572,0.323 -0.887,0.437c-0.315,0.114 -0.64,0.199 -0.976,0.256c-0.336,0.057 -0.669,0.086 -0.999,0.086c-0.63,0 -1.211,-0.107 -1.742,-0.32c-0.531,-0.213 -0.99,-0.525 -1.377,-0.936c-0.387,-0.411 -0.688,-0.919 -0.904,-1.525c-0.216,-0.606 -0.324,-1.302 -0.324,-2.088c0,-0.636 0.097,-1.23 0.292,-1.782c0.195,-0.552 0.476,-1.031 0.842,-1.436c0.366,-0.405 0.813,-0.723 1.341,-0.954c0.528,-0.231 1.122,-0.346 1.782,-0.346Zm0.036,1.179c-0.774,0 -1.383,0.223 -1.827,0.67c-0.444,0.447 -0.72,1.067 -0.828,1.859l4.959,0c0,-0.372 -0.051,-0.713 -0.153,-1.022c-0.102,-0.309 -0.252,-0.576 -0.45,-0.801c-0.198,-0.225 -0.44,-0.399 -0.725,-0.522c-0.285,-0.123 -0.61,-0.184 -0.976,-0.184Z" style="fill-rule:nonzero;"/><path d="M168.968,218.416c-0.048,0.066 -0.096,0.117 -0.144,0.153c-0.048,0.036 -0.117,0.054 -0.207,0.054c-0.09,0 -0.188,-0.037 -0.293,-0.112c-0.105,-0.076 -0.238,-0.158 -0.4,-0.248c-0.162,-0.09 -0.359,-0.172 -0.59,-0.248c-0.231,-0.075 -0.514,-0.112 -0.85,-0.112c-0.444,0 -0.837,0.079 -1.179,0.238c-0.342,0.159 -0.629,0.389 -0.86,0.689c-0.231,0.3 -0.405,0.663 -0.522,1.089c-0.117,0.426 -0.175,0.903 -0.175,1.431c0,0.552 0.063,1.042 0.189,1.471c0.126,0.429 0.303,0.789 0.531,1.08c0.228,0.291 0.505,0.513 0.832,0.666c0.327,0.153 0.695,0.23 1.103,0.23c0.39,0 0.711,-0.047 0.963,-0.139c0.252,-0.094 0.462,-0.197 0.63,-0.311c0.168,-0.114 0.306,-0.218 0.414,-0.311c0.108,-0.092 0.216,-0.139 0.324,-0.139c0.138,0 0.24,0.051 0.306,0.153l0.45,0.585c-0.396,0.486 -0.891,0.841 -1.485,1.067c-0.594,0.225 -1.221,0.337 -1.881,0.337c-0.57,0 -1.1,-0.105 -1.589,-0.315c-0.489,-0.21 -0.913,-0.514 -1.273,-0.913c-0.36,-0.399 -0.644,-0.89 -0.851,-1.472c-0.207,-0.582 -0.31,-1.245 -0.31,-1.989c0,-0.678 0.094,-1.305 0.283,-1.881c0.189,-0.576 0.465,-1.072 0.828,-1.489c0.363,-0.417 0.812,-0.743 1.346,-0.977c0.534,-0.234 1.146,-0.351 1.836,-0.351c0.636,0 1.2,0.104 1.692,0.311c0.492,0.207 0.927,0.499 1.305,0.877l-0.423,0.576Z" style="fill-rule:nonzero;"/><path d="M171.155,225.913l0,-13.257l1.602,0l0,5.364c0.39,-0.414 0.822,-0.745 1.296,-0.994c0.474,-0.25 1.02,-0.374 1.638,-0.374c0.498,0 0.937,0.083 1.318,0.247c0.381,0.165 0.699,0.399 0.954,0.702c0.255,0.303 0.449,0.668 0.581,1.094c0.132,0.426 0.198,0.897 0.198,1.413l0,5.805l-1.602,0l0,-5.805c0,-0.69 -0.158,-1.226 -0.473,-1.607c-0.315,-0.381 -0.796,-0.571 -1.444,-0.571c-0.474,0 -0.917,0.114 -1.328,0.342c-0.411,0.228 -0.79,0.537 -1.138,0.927l0,6.714l-1.602,0Z" style="fill-rule:nonzero;"/><path d="M187.859,225.913l-0.711,0c-0.156,0 -0.282,-0.024 -0.378,-0.072c-0.096,-0.048 -0.159,-0.15 -0.189,-0.306l-0.18,-0.846c-0.24,0.216 -0.474,0.41 -0.702,0.581c-0.228,0.171 -0.468,0.315 -0.72,0.432c-0.252,0.117 -0.521,0.205 -0.806,0.265c-0.285,0.06 -0.601,0.09 -0.949,0.09c-0.354,0 -0.686,-0.049 -0.995,-0.148c-0.309,-0.099 -0.577,-0.248 -0.805,-0.446c-0.228,-0.198 -0.41,-0.448 -0.545,-0.751c-0.135,-0.303 -0.202,-0.662 -0.202,-1.076c0,-0.36 0.099,-0.706 0.297,-1.039c0.198,-0.333 0.517,-0.629 0.958,-0.887c0.441,-0.258 1.019,-0.469 1.733,-0.634c0.714,-0.165 1.587,-0.26 2.619,-0.284l0,-0.711c0,-0.708 -0.152,-1.243 -0.455,-1.606c-0.303,-0.363 -0.751,-0.545 -1.345,-0.545c-0.39,0 -0.719,0.05 -0.986,0.149c-0.267,0.099 -0.498,0.209 -0.693,0.332c-0.195,0.124 -0.363,0.235 -0.504,0.334c-0.141,0.099 -0.28,0.148 -0.418,0.148c-0.108,0 -0.203,-0.028 -0.284,-0.085c-0.081,-0.058 -0.145,-0.128 -0.193,-0.212l-0.288,-0.513c0.504,-0.486 1.047,-0.849 1.629,-1.089c0.582,-0.24 1.227,-0.36 1.935,-0.36c0.51,0 0.963,0.084 1.359,0.252c0.396,0.168 0.729,0.402 0.999,0.702c0.27,0.3 0.474,0.663 0.612,1.089c0.138,0.426 0.207,0.894 0.207,1.404l0,5.832Zm-4.158,-0.981c0.282,0 0.54,-0.028 0.774,-0.085c0.234,-0.057 0.454,-0.138 0.661,-0.243c0.207,-0.105 0.405,-0.233 0.594,-0.383c0.189,-0.15 0.374,-0.321 0.554,-0.513l0,-1.899c-0.738,0.024 -1.365,0.083 -1.881,0.176c-0.516,0.093 -0.936,0.214 -1.26,0.364c-0.324,0.15 -0.56,0.327 -0.707,0.531c-0.147,0.204 -0.22,0.432 -0.22,0.684c0,0.24 0.039,0.447 0.117,0.621c0.078,0.174 0.183,0.317 0.315,0.428c0.132,0.111 0.288,0.192 0.468,0.243c0.18,0.051 0.375,0.076 0.585,0.076Z" style="fill-rule:nonzero;"/><path d="M190.289,225.913l0,-9.117l0.954,0c0.228,0 0.372,0.111 0.432,0.333l0.126,0.99c0.396,-0.438 0.838,-0.792 1.327,-1.062c0.489,-0.27 1.055,-0.405 1.697,-0.405c0.498,0 0.937,0.083 1.318,0.247c0.381,0.165 0.699,0.399 0.954,0.702c0.255,0.303 0.449,0.668 0.581,1.094c0.132,0.426 0.198,0.897 0.198,1.413l0,5.805l-1.602,0l0,-5.805c0,-0.69 -0.158,-1.226 -0.473,-1.607c-0.315,-0.381 -0.796,-0.571 -1.444,-0.571c-0.474,0 -0.917,0.114 -1.328,0.342c-0.411,0.228 -0.79,0.537 -1.138,0.927l0,6.714l-1.602,0Z" style="fill-rule:nonzero;"/><path d="M200.297,225.913l0,-9.117l0.954,0c0.228,0 0.372,0.111 0.432,0.333l0.126,0.99c0.396,-0.438 0.838,-0.792 1.327,-1.062c0.489,-0.27 1.055,-0.405 1.697,-0.405c0.498,0 0.937,0.083 1.318,0.247c0.381,0.165 0.699,0.399 0.954,0.702c0.255,0.303 0.449,0.668 0.581,1.094c0.132,0.426 0.198,0.897 0.198,1.413l0,5.805l-1.602,0l0,-5.805c0,-0.69 -0.158,-1.226 -0.473,-1.607c-0.315,-0.381 -0.796,-0.571 -1.444,-0.571c-0.474,0 -0.917,0.114 -1.328,0.342c-0.411,0.228 -0.79,0.537 -1.138,0.927l0,6.714l-1.602,0Z" style="fill-rule:nonzero;"/><path d="M213.914,216.652c0.546,0 1.05,0.091 1.512,0.274c0.462,0.184 0.861,0.447 1.197,0.792c0.336,0.346 0.598,0.772 0.787,1.279c0.189,0.507 0.284,1.084 0.284,1.732c0,0.252 -0.027,0.42 -0.081,0.504c-0.054,0.084 -0.156,0.126 -0.306,0.126l-6.066,0c0.012,0.576 0.09,1.077 0.234,1.503c0.144,0.426 0.342,0.781 0.594,1.066c0.252,0.285 0.552,0.498 0.9,0.639c0.348,0.141 0.738,0.212 1.17,0.212c0.402,0 0.748,-0.047 1.039,-0.14c0.291,-0.093 0.542,-0.193 0.752,-0.301c0.21,-0.108 0.385,-0.209 0.526,-0.302c0.141,-0.093 0.263,-0.139 0.365,-0.139c0.132,0 0.234,0.051 0.306,0.153l0.45,0.585c-0.198,0.24 -0.435,0.448 -0.711,0.625c-0.276,0.177 -0.572,0.323 -0.887,0.437c-0.315,0.114 -0.64,0.199 -0.976,0.256c-0.336,0.057 -0.669,0.086 -0.999,0.086c-0.63,0 -1.211,-0.107 -1.742,-0.32c-0.531,-0.213 -0.99,-0.525 -1.377,-0.936c-0.387,-0.411 -0.688,-0.919 -0.904,-1.525c-0.216,-0.606 -0.324,-1.302 -0.324,-2.088c0,-0.636 0.097,-1.23 0.292,-1.782c0.195,-0.552 0.476,-1.031 0.842,-1.436c0.366,-0.405 0.813,-0.723 1.341,-0.954c0.528,-0.231 1.122,-0.346 1.782,-0.346Zm0.036,1.179c-0.774,0 -1.383,0.223 -1.827,0.67c-0.444,0.447 -0.72,1.067 -0.828,1.859l4.959,0c0,-0.372 -0.051,-0.713 -0.153,-1.022c-0.102,-0.309 -0.252,-0.576 -0.45,-0.801c-0.198,-0.225 -0.44,-0.399 -0.725,-0.522c-0.285,-0.123 -0.61,-0.184 -0.976,-0.184Z" style="fill-rule:nonzero;"/><rect x="219.917" y="212.656" width="1.602" height="13.257" style="fill-rule:nonzero;"/><path d="M229.565,218.299c-0.072,0.132 -0.183,0.198 -0.333,0.198c-0.09,0 -0.192,-0.033 -0.306,-0.099c-0.114,-0.066 -0.254,-0.139 -0.419,-0.221c-0.165,-0.081 -0.361,-0.156 -0.589,-0.225c-0.228,-0.069 -0.498,-0.103 -0.81,-0.103c-0.27,0 -0.513,0.035 -0.729,0.103c-0.216,0.069 -0.401,0.164 -0.554,0.284c-0.153,0.12 -0.27,0.26 -0.351,0.418c-0.081,0.159 -0.121,0.332 -0.121,0.518c0,0.234 0.067,0.429 0.202,0.585c0.135,0.156 0.314,0.291 0.536,0.405c0.222,0.114 0.474,0.214 0.756,0.301c0.282,0.087 0.571,0.18 0.868,0.279c0.297,0.099 0.587,0.209 0.869,0.329c0.282,0.12 0.534,0.27 0.756,0.45c0.222,0.18 0.4,0.4 0.535,0.661c0.135,0.262 0.203,0.575 0.203,0.941c0,0.42 -0.075,0.809 -0.225,1.165c-0.15,0.358 -0.372,0.666 -0.666,0.928c-0.294,0.26 -0.654,0.466 -1.08,0.616c-0.426,0.15 -0.918,0.225 -1.476,0.225c-0.636,0 -1.212,-0.103 -1.728,-0.31c-0.516,-0.207 -0.954,-0.473 -1.314,-0.797l0.378,-0.612c0.048,-0.078 0.105,-0.138 0.171,-0.18c0.066,-0.042 0.153,-0.063 0.261,-0.063c0.108,0 0.222,0.042 0.342,0.126c0.12,0.084 0.265,0.177 0.436,0.279c0.171,0.102 0.378,0.195 0.621,0.279c0.243,0.084 0.548,0.126 0.914,0.126c0.312,0 0.585,-0.041 0.819,-0.122c0.234,-0.081 0.429,-0.19 0.585,-0.328c0.156,-0.138 0.271,-0.297 0.346,-0.477c0.075,-0.18 0.113,-0.372 0.113,-0.576c0,-0.252 -0.068,-0.46 -0.203,-0.626c-0.135,-0.164 -0.313,-0.305 -0.535,-0.422c-0.222,-0.118 -0.476,-0.22 -0.761,-0.306c-0.285,-0.087 -0.576,-0.179 -0.873,-0.275c-0.297,-0.096 -0.588,-0.206 -0.873,-0.328c-0.285,-0.123 -0.538,-0.278 -0.76,-0.464c-0.222,-0.186 -0.401,-0.415 -0.536,-0.688c-0.135,-0.274 -0.202,-0.605 -0.202,-0.995c0,-0.348 0.072,-0.682 0.216,-1.003c0.144,-0.322 0.354,-0.603 0.63,-0.846c0.276,-0.243 0.615,-0.437 1.017,-0.581c0.402,-0.144 0.861,-0.216 1.377,-0.216c0.6,0 1.138,0.095 1.615,0.284c0.477,0.189 0.89,0.448 1.238,0.778l-0.36,0.585Z" style="fill-rule:nonzero;"/></g><defs><linearGradient id="_Linear1" x1="0" y1="0" x2="1" y2="0" gradientUnits="userSpaceOnUse" gradientTransform="matrix(210.569,20.4359,-20.4359,210.569,-3.83171,114.564)"><stop offset="0" style="stop-color:#093f6e;stop-opacity:1"/><stop offset="1" style="stop-color:#c8e3fb;stop-opacity:1"/></linearGradient></defs></svg>