<?xml version="1.0" encoding="UTF-8" standalone="no"?><!DOCTYPE svg PUBLIC "-//W3C//DTD SVG 1.1//EN" "http://www.w3.org/Graphics/SVG/1.1/DTD/svg11.dtd"><svg width="100%" height="100%" viewBox="0 0 64 64" version="1.1" xmlns="http://www.w3.org/2000/svg" xmlns:xlink="http://www.w3.org/1999/xlink" xml:space="preserve" xmlns:serif="http://www.serif.com/" style="fill-rule:evenodd;clip-rule:evenodd;stroke-linecap:round;stroke-linejoin:round;stroke-miterlimit:1.5;"><circle cx="32" cy="32" r="30" style="fill:#fff;"/><path d="M51.036,48l-29.524,0c-3.502,-0.161 -6.839,-4.884 -7.777,-7.292c-0.157,-0.402 -0.263,-0.829 -0.301,-1.264c-0.016,-0.18 -0.021,-0.361 -0.013,-0.542c0.01,-0.233 0.04,-0.465 0.089,-0.692c0.785,-3.656 5.112,-5.04 8.522,-6.308c2.676,-1.008 4.693,-2.588 7.501,-4.678c0.16,-0.121 0.921,0.216 -0.357,-0.822l-2.673,-3.116c-0.943,-0.891 -2.426,-2.875 -0.931,-2.828c1.853,1.039 4.066,2.264 5.647,3.652l2.269,1.938c1.979,1.868 -2.872,5.089 -5.051,7.249c-1.126,1.181 1.102,2.504 2.271,3.414c0.292,0.227 0.587,0.448 0.886,0.664c0.373,0.269 0.751,0.529 1.134,0.781c5.541,3.643 11.967,5.796 18.321,6.662c0.61,0.078 2.787,3.033 -0.013,3.182Z" style="fill:url(#_Linear1);"/><path d="M55.729,40.768l2.271,0c-5.772,13.07 -15.429,21.643 -26.358,21.643c-10.929,0 -20.585,-8.573 -26.357,-21.643l4.487,0c0.678,0.995 1.946,1.665 3.396,1.665c1.282,0 2.421,-0.523 3.136,-1.332c0.716,0.809 1.855,1.332 3.137,1.332c1.282,0 2.421,-0.523 3.136,-1.332c0.716,0.809 1.855,1.332 3.137,1.332c1.282,0 2.421,-0.523 3.137,-1.332c0.715,0.809 1.854,1.332 3.136,1.332c1.077,0 2.053,-0.369 2.762,-0.967c0.595,0.598 1.415,0.967 2.32,0.967c1.076,0 2.033,-0.523 2.634,-1.332c0.601,0.809 1.558,1.332 2.635,1.332c1.077,0 2.034,-0.523 2.635,-1.332c0.601,0.809 1.558,1.332 2.635,1.332c1.076,0 2.033,-0.523 2.634,-1.332c0.601,0.809 1.558,1.332 2.635,1.332c1.218,0 2.283,-0.67 2.852,-1.665Z" style="fill:url(#_Linear2);"/><path d="M42.183,49.232l3.095,-1.969l-0.104,4.828l-2.816,-1.586c-1.017,0.316 -2.8,0.579 -5.037,0.745l-1.684,1.75l-2.438,-1.16l2.761,-0.503c-1.334,0.071 -2.79,0.11 -4.313,0.11c-6.428,0 -11.647,-0.696 -11.647,-1.553c0,-0.857 5.219,-1.553 11.647,-1.553c4.651,0 8.67,0.365 10.536,0.891Zm-15.225,3.642l-1.433,-1.292l2.852,-0.016l-1.419,1.308Zm6.241,-4.533l-4.658,0l2.329,-1.711l2.329,1.711Z" style="fill:#fff;stroke:#fff;stroke-width:0.5px;"/><path d="M28,23l-11,-9l-13,10" style="fill:none;stroke:#000;stroke-width:3px;"/><path d="M28,23l11.421,-12l19.579,11" style="fill:none;stroke:#000;stroke-width:3px;"/><circle id="Border" cx="32" cy="32" r="28" style="fill:none;stroke:#fff;stroke-width:3px;"/><circle id="Border1" serif:id="Border" cx="32" cy="32" r="30" style="fill:none;stroke:#000;stroke-width:3px;"/><defs><linearGradient id="_Linear1" x1="0" y1="0" x2="1" y2="0" gradientUnits="userSpaceOnUse" gradientTransform="matrix(-7.26447,-28.3719,28.3719,-7.26447,31,42)"><stop offset="0" style="stop-color:#093f6e;stop-opacity:1"/><stop offset="1" style="stop-color:#e7fdfc;stop-opacity:1"/></linearGradient><linearGradient id="_Linear2" x1="0" y1="0" x2="1" y2="0" gradientUnits="userSpaceOnUse" gradientTransform="matrix(3.67394e-16,-6,6,3.67394e-16,27,46)"><stop offset="0" style="stop-color:#093f6e;stop-opacity:1"/><stop offset="1" style="stop-color:#e7fdfc;stop-opacity:1"/></linearGradient></defs></svg>