<?xml version="1.0" encoding="UTF-8" standalone="no"?><!DOCTYPE svg PUBLIC "-//W3C//DTD SVG 1.1//EN" "http://www.w3.org/Graphics/SVG/1.1/DTD/svg11.dtd"><svg width="100%" height="100%" viewBox="0 0 200 200" version="1.1" xmlns="http://www.w3.org/2000/svg" xmlns:xlink="http://www.w3.org/1999/xlink" xml:space="preserve" xmlns:serif="http://www.serif.com/" style="fill-rule:evenodd;clip-rule:evenodd;stroke-linejoin:round;stroke-miterlimit:1.41421;"><g><path d="M70.819,66.304c6.486,-1.1 14.216,-1.821 23.406,-1.821c4.045,0 8.292,0.14 12.619,0.417c0.698,0.044 1.328,0.089 1.904,0.13c1.327,0.093 2.375,0.168 3.267,0.168c1.541,0 2.829,-0.19 5.982,-1.264c2.503,-0.854 4.262,-1.638 5.674,-2.268c1.776,-0.792 3.059,-1.364 4.456,-1.364c3.803,0 6.285,5.412 6.834,7.881c0.06,0.271 0.098,0.516 0.126,0.718c1.349,0.67 5.66,1.718 12.838,3.121l0.984,0.192c3.513,0.688 6.378,1.245 8.772,1.623c-10.291,-25.621 -35.351,-43.719 -64.651,-43.719c-11.688,0 -22.694,2.891 -32.366,7.978c0.987,4.516 2.159,8.978 3.322,13.394c0.178,0.68 0.358,1.38 0.539,2.067c1.284,-3.887 2.096,-7.944 1.563,-12.837l-0.032,-0.249c-0.08,-0.582 -0.19,-1.38 0.56,-1.725c0.169,-0.079 0.76,-0.284 1.327,0.351c0.092,0.104 0.161,0.226 0.203,0.358c2.291,7.241 4.352,17.381 3.267,24.127c-0.151,0.934 -0.354,1.839 -0.594,2.722Z" style="fill:#cbe8dd;fill-rule:nonzero;"/><path d="M117.322,116.042c5.782,0 11.367,-1.665 17.28,-3.429c2.712,-0.808 5.516,-1.644 8.458,-2.359c1.335,-0.323 2.757,-0.488 4.225,-0.488c4.083,0 8.602,1.222 14.037,3.8c0.896,-4.457 1.371,-9.066 1.371,-13.787c0,-2.585 -0.152,-5.136 -0.426,-7.65c-1.085,-0.295 -1.992,-0.474 -2.599,-0.474c-0.043,0 -0.074,0.001 -0.088,0.001c-0.007,0 -0.01,0 -0.008,-0.001c-1.428,0.343 -2.881,0.538 -4.331,0.582l-0.059,0.652l-2.036,0.497l-15.761,3.847l-2.146,0.524l-1.096,-1.918l-0.505,-0.885c-1.085,0.144 -2.481,0.32 -3.881,0.471c-0.238,1.292 -1.118,2.454 -1.973,3.582c-0.202,0.266 -0.506,0.667 -0.586,0.803c-0.602,1.054 -1.656,1.683 -2.819,1.683c-2.178,0 -3.164,-1.918 -3.885,-3.318c-0.093,-0.178 -0.177,-0.344 -0.239,-0.457c-0.158,-0.251 -0.738,-0.942 -1.421,-1.703c-3.859,0.188 -14.911,0.703 -21.189,0.805c-0.826,0.013 -1.783,0.019 -2.84,0.019c-3.851,0 -9.101,-0.085 -14.121,-0.219c4.192,2.994 8.933,6.581 14.501,10.797c7.774,5.884 14.808,8.625 22.137,8.625Z" style="fill:#cbe8dd;fill-rule:nonzero;"/><path d="M49.251,72.898c2.281,-1.141 5.137,-2.344 8.615,-3.475c-0.004,-0.01 -0.007,-0.022 -0.01,-0.033c-0.949,-3.136 -1.847,-6.098 -2.611,-9.013c-1.546,-5.89 -2.292,-11.649 -2.475,-17.432c-15.203,10.793 -25.897,27.522 -28.676,46.819c0.32,0.042 0.628,0.067 0.94,0.067c2.792,0 6.935,-1.01 11.322,-2.081c3.072,-0.75 6.384,-1.55 9.683,-2.121c-0.038,-0.05 -0.083,-0.097 -0.121,-0.148c-0.913,-0.801 -2.819,-2.84 -2.58,-5.724c0.224,-2.702 2.213,-5.01 5.913,-6.859Z" style="fill:#cbe8dd;fill-rule:nonzero;"/><path d="M85.85,143.099c-0.46,0 -0.833,-0.373 -0.833,-0.832c0,-0.46 0.373,-0.833 0.833,-0.833c0.46,0 0.833,0.373 0.833,0.833c0,0.459 -0.373,0.832 -0.833,0.832Zm-5.833,2.734c-1.094,0 -1.979,-0.887 -1.979,-1.98c0,-1.093 0.885,-1.98 1.979,-1.98c1.094,0 1.98,0.887 1.98,1.98c0,1.093 -0.886,1.98 -1.98,1.98Zm-0.754,5.783c-0.677,0 -1.225,-0.548 -1.225,-1.224c0,-0.677 0.548,-1.226 1.225,-1.226c0.677,0 1.226,0.549 1.226,1.226c0,0.676 -0.549,1.224 -1.226,1.224Zm-1.785,-13.871c-0.096,0.234 -0.19,0.468 -0.29,0.699c-1.707,3.964 -5.603,8.995 -10.967,10.128c-0.712,0.151 -1.457,0.227 -2.218,0.227c-4.801,0 -9.688,-3.067 -12.941,-5.64c-2.588,-2.047 -4.166,-4.764 -4.823,-8.308c-0.035,-0.188 -0.049,-0.379 -0.04,-0.571c0.018,-0.402 0.032,-0.796 0.046,-1.18c0.094,-2.738 0.193,-5.568 1.931,-8.591c2.472,-4.302 5.535,-8.348 11.168,-8.818c1.384,-0.115 2.632,-0.171 3.817,-0.171c6.3,0 10.894,1.693 13.654,5.031c0.982,1.188 1.81,2.528 2.463,3.982c0.028,0.063 0.053,0.126 0.076,0.192c1.345,3.81 0.909,7.668 -1.33,11.794c-0.192,0.353 -0.364,0.777 -0.546,1.226Zm-33.207,-15.194c-0.459,0 -0.832,-0.373 -0.832,-0.833c0,-0.46 0.373,-0.833 0.832,-0.833c0.46,0 0.833,0.373 0.833,0.833c0,0.46 -0.373,0.833 -0.833,0.833Zm-3.959,-6.536c0,-1.093 0.887,-1.98 1.979,-1.98c1.094,0 1.98,0.887 1.98,1.98c0,1.093 -0.886,1.98 -1.98,1.98c-1.092,0 -1.979,-0.887 -1.979,-1.98Zm34.205,-19.594l-0.254,-0.009l-6.92,-0.265l0.107,-0.097c-0.198,-0.016 -0.381,-0.032 -0.55,-0.048c-0.651,3.537 -1.454,7.141 -2.377,10.863c-0.127,0.513 -0.587,0.856 -1.093,0.856c-0.09,0 -0.182,-0.011 -0.272,-0.034c-0.604,-0.149 -0.973,-0.76 -0.823,-1.365c0.002,-0.009 0.004,-0.017 0.007,-0.027c0.002,-0.011 0.004,-0.022 0.007,-0.033l-0.006,-0.028c-0.81,-3.692 -1.687,-7.706 -2.425,-11.825c-3.514,-1.152 -7.631,-2.995 -10.903,-5.711c-0.167,-0.139 -0.331,-0.279 -0.493,-0.422c-8.53,1.187 -17.804,4.555 -23.488,4.555c-0.47,0 -0.9,-0.039 -1.314,-0.091c-0.016,0.161 -0.021,0.326 -0.037,0.487c-0.201,2.158 -0.316,4.342 -0.316,6.552c0,8.088 1.381,15.851 3.918,23.072c9.917,26.962 35.858,46.248 66.22,46.248c1.255,0 2.502,-0.036 3.741,-0.101c-4.098,-6.009 -3.192,-10.041 -2.644,-12.459c0.279,-1.228 0.712,-2.154 1.297,-2.776c-0.751,-4.45 1.01,-8.042 2.715,-9.9c0.548,-0.597 1.113,-0.955 1.64,-1.162c0.679,-1.863 1.639,-4.314 2.374,-5.432c0.754,-1.147 1.667,-1.791 2.718,-1.92c1.554,-1.588 4.198,-3.675 7.663,-4.139c1.011,-0.136 1.853,-0.202 2.574,-0.202c1.816,0 3,0.444 3.847,1.102c0.202,-1.782 1.381,-3.28 3.856,-5.191c2.707,-2.091 5.994,-2.53 8.274,-2.53c0.017,0 0.033,0 0.048,0c0.583,-0.457 1.336,-0.711 2.173,-0.711l0.001,0c0.343,0 0.706,0.04 1.111,0.121c1.312,0.263 3.734,1.305 5.537,2.134c0.469,-0.207 1.055,-0.355 1.771,-0.355c0.066,0 0.134,0.001 0.203,0.004c2.522,0.094 6.316,1.369 8.951,5.034c0.867,0.001 1.729,0.309 2.883,1.028c0.174,0.107 0.36,0.224 0.55,0.346c2.453,-4.693 4.387,-9.7 5.726,-14.947c0.041,-0.161 0.09,-0.318 0.13,-0.48c-4.526,-2.206 -9.111,-3.797 -13.359,-3.797c-1.202,0 -2.378,0.128 -3.517,0.404c-9.371,2.274 -17.485,5.872 -26.446,5.872c-7.102,0 -14.738,-2.262 -23.947,-9.233c-7.383,-5.589 -13.242,-10.001 -18.213,-13.364c-0.216,-0.008 -0.434,-0.016 -0.645,-0.024Z" style="fill:#001d3c;fill-rule:nonzero;"/><path d="M100.904,172.218c-2.434,0.241 -4.902,0.369 -7.399,0.369c-40.879,0 -74.016,-33.138 -74.016,-74.015c0,-25.827 13.236,-48.552 33.287,-61.794c0.063,-1.849 0.181,-3.707 0.338,-5.577c-23.393,13.892 -39.08,39.398 -39.08,68.578c0,44.029 35.691,79.72 79.72,79.72c4.397,0 8.707,-0.371 12.911,-1.057c-0.067,-0.403 -0.114,-0.824 -0.13,-1.267c-0.04,-1.205 0.183,-2.29 0.59,-3.26c-2.435,-0.221 -4.514,-0.8 -6.221,-1.697Z" style="fill:#001d3c;fill-rule:nonzero;"/><path d="M167.351,93.81c0.1,1.576 0.169,3.16 0.169,4.762c0,13.168 -3.455,25.524 -9.484,36.238c1.295,1.59 2.496,3.904 3.189,7.411c7.748,-12.292 12.248,-26.837 12.248,-42.442c0,-1.224 -0.038,-2.439 -0.092,-3.65c-1.805,-0.713 -3.947,-1.555 -6.03,-2.319Z" style="fill:#001d3c;fill-rule:nonzero;"/><path d="M93.505,24.556c32.391,0 59.905,20.817 69.939,49.796c0.311,-0.008 0.619,-0.021 0.912,-0.047c0.661,-0.436 1.307,-0.868 1.912,-1.272c0.716,-0.478 1.406,-0.936 2.083,-1.384c-11.373,-30.143 -40.475,-51.588 -74.597,-51.588c-12.506,0 -24.334,2.885 -34.866,8.017c0.205,1.574 0.446,3.141 0.723,4.702c10.158,-5.244 21.675,-8.224 33.894,-8.224Z" style="fill:#001d3c;fill-rule:nonzero;"/><path d="M57.424,59.805c0.634,2.417 1.368,4.89 2.146,7.466c0.782,-2.879 1.835,-5.546 2.871,-8.15c0.245,-0.617 0.487,-1.229 0.726,-1.841c-0.45,-1.752 -0.91,-3.499 -1.361,-5.216c-1.115,-4.234 -2.233,-8.511 -3.198,-12.84c-0.125,-0.562 -0.248,-1.125 -0.367,-1.689c0,0 0,-0.001 -0.001,-0.002c-0.126,-0.599 -0.247,-1.199 -0.367,-1.8c-0.005,-0.028 -0.011,-0.054 -0.017,-0.081c-0.115,-0.585 -0.227,-1.171 -0.334,-1.758c-0.288,-1.567 -0.541,-3.144 -0.762,-4.728c-0.083,-0.6 -0.173,-1.2 -0.245,-1.803c-0.074,-0.618 -0.129,-1.241 -0.19,-1.862c-0.049,-0.492 -0.112,-0.982 -0.152,-1.476c-0.076,0.556 -0.144,1.11 -0.215,1.664c-0.086,0.698 -0.169,1.392 -0.246,2.086c-0.076,0.686 -0.146,1.371 -0.213,2.054c-0.175,1.834 -0.315,3.654 -0.404,5.462c-0.033,0.669 -0.057,1.336 -0.077,2.002c-0.002,0.052 -0.005,0.104 -0.006,0.156c-0.019,0.68 -0.029,1.359 -0.034,2.037c0,0.018 0,0.037 -0.001,0.056c-0.003,0.629 0.002,1.258 0.011,1.886c0.091,6.123 0.812,12.187 2.436,18.377Z" style="fill:#001d3c;fill-rule:nonzero;"/><path d="M65.414,67.364c0.364,-0.082 0.736,-0.162 1.11,-0.242c0.361,-0.078 0.734,-0.152 1.105,-0.227c0.345,-0.069 0.675,-0.143 1.029,-0.21c0.339,-1.104 0.621,-2.232 0.811,-3.415c0.736,-4.563 -0.072,-10.84 -1.4,-16.614c-0.385,3.752 -1.453,7.089 -2.663,10.286c-0.231,0.607 -0.466,1.211 -0.702,1.81c-0.145,0.367 -0.29,0.732 -0.434,1.096c-0.097,0.241 -0.192,0.484 -0.288,0.728c-0.991,2.499 -1.97,5.067 -2.67,7.814c1.294,-0.356 2.659,-0.7 4.102,-1.026Z" style="fill:#001d3c;fill-rule:nonzero;"/><path d="M142.062,149.648c-0.19,0.043 -0.381,0.089 -0.575,0.139c-1.527,0.392 -3.119,0.975 -4.362,1.828c-3.407,2.338 -5.471,3.509 -6.637,2.993c-1.126,-0.499 -2.355,-2.17 -2.798,-3.417c-0.152,-0.429 -0.482,-1.001 -0.951,-1.654c0.108,0.637 0.27,1.351 0.506,1.839c0.576,1.191 0.899,3.241 0.462,4.394c-0.449,1.188 -2.734,1.834 -6.794,2.612c-3.882,0.745 -8.153,4.507 -8.504,4.977c-0.151,0.203 -0.318,0.279 -0.468,0.279c-0.088,0 -0.17,-0.027 -0.238,-0.068c-0.367,-0.221 -0.505,-0.976 -0.269,-1.467c0.337,-0.697 3.445,-3.236 5.642,-4.331c1.233,-0.614 3.041,-1.125 4.636,-1.575c1.306,-0.369 2.541,-0.718 3.151,-1.041c0.998,-0.53 0.706,-2.857 0.448,-4.91c-0.056,-0.454 -0.113,-0.904 -0.157,-1.334c-0.111,-1.1 -0.023,-1.819 0.272,-2.2c0.052,-0.069 0.135,-0.107 0.226,-0.095c0.478,0.057 1.052,0.5 1.756,1.354c0.276,0.333 0.556,0.689 0.838,1.049c1.279,1.627 2.723,3.473 3.808,3.134c0.658,-0.206 1.774,-0.839 2.956,-1.509c1.441,-0.817 3.076,-1.743 4.379,-2.187c1.212,-0.414 2.875,-0.727 4.295,-0.896c0.184,-0.022 0.365,-0.042 0.541,-0.058c1.055,-0.104 1.908,-0.115 2.209,-0.012c0.047,0.017 0.088,0.054 0.135,0.077c0.451,0.232 0.81,0.767 0.72,1.145c-0.051,0.209 -0.241,0.415 -0.647,0.353c-0.167,-0.021 -0.757,-0.004 -1.58,0.082c-0.821,0.086 -1.874,0.242 -3,0.499Zm13.727,5.507c-0.433,-0.088 -0.87,-0.132 -1.305,-0.132c-0.334,0 -0.665,0.023 -0.989,0.062c-1.299,0.157 -2.473,0.58 -3.212,0.897c-0.5,0.215 -0.804,0.382 -0.804,0.382c0.288,-0.18 0.764,-0.51 1.337,-0.941c2.152,-1.619 5.784,-4.837 7.178,-8.45c0.495,-1.284 0.722,-2.613 0.476,-3.939c-0.462,-2.493 -1.192,-4.24 -2.023,-5.525c-0.372,-0.575 -0.763,-1.059 -1.162,-1.471c-0.446,-0.461 -0.9,-0.839 -1.342,-1.159c-0.181,-0.131 -0.359,-0.254 -0.535,-0.369c-0.234,-0.155 -0.464,-0.299 -0.683,-0.435c-0.69,-0.43 -1.125,-0.595 -1.374,-0.595c-0.449,0 -0.295,0.535 0.051,1.02c0.258,0.361 0.777,0.775 1.297,1.191c0.164,0.132 0.328,0.264 0.485,0.395c0.384,0.319 0.722,0.632 0.892,0.914c0.077,0.127 0.168,0.311 0.262,0.516c0.261,0.568 0.556,1.374 0.725,2.151c0.136,0.62 0.19,1.216 0.076,1.638c-0.308,1.142 -1.205,4.885 -1.371,6.814c-0.165,1.929 -3.026,2.078 -3.026,2.078c0,0 0.991,-1.134 0.964,-5.929c-0.004,-0.809 -0.04,-1.726 -0.112,-2.756c-0.057,-0.806 -0.131,-1.663 -0.24,-2.618c-0.002,-0.015 -0.004,-0.028 -0.006,-0.042c-0.034,-0.287 -0.085,-0.542 -0.128,-0.814c-1.372,-8.595 -7.605,-9.545 -8.922,-9.594c-0.033,-0.002 -0.066,-0.002 -0.097,-0.002c-1.257,0 -1.102,0.976 -1.102,0.976c0,0 -5.067,-2.469 -6.77,-2.811c-0.226,-0.046 -0.405,-0.065 -0.548,-0.065c-0.937,0 -0.267,0.849 -0.267,0.849c0,0 -0.788,-0.138 -1.954,-0.138c-1.777,0 -4.434,0.32 -6.523,1.934c-3.458,2.669 -2.919,3.425 -2.462,5.144c0.132,0.502 0.188,0.711 0.255,0.711c0.166,0 0.401,-1.231 1.997,-2.497c0.885,-0.703 1.884,-0.916 2.77,-0.916c1.367,0 2.464,0.508 2.464,0.508c-0.007,-0.001 -0.017,-0.001 -0.025,-0.001c-1.752,0 -3.819,1.91 -5.139,3.287c-0.962,1.003 -1.359,1.709 0.115,1.709c0.557,0 1.383,-0.102 2.549,-0.326c1.832,-0.341 3.518,-0.482 5.049,-0.482c7.282,0 11.131,3.179 11.131,3.179c-1.865,0.628 -2.132,1.288 -2.132,1.288c-0.878,-0.429 -2.065,-0.593 -3.389,-0.593c-4.193,0 -9.757,1.644 -11.203,1.76c-0.071,0.005 -0.141,0.008 -0.213,0.008c-1.018,0 -2.256,-0.535 -3.187,-1.032l-0.497,-1.197c0,0 -0.057,0.328 -0.178,0.817c-0.431,-0.259 -0.705,-0.449 -0.705,-0.449l0.503,1.195c-0.322,1.082 -0.861,2.447 -1.662,3.136c-1.446,1.247 -9.789,5.704 -11.091,9.556c0,0 -0.096,-0.041 -0.314,-0.041c-0.35,0 -1.016,0.105 -2.101,0.651c0,0 0.655,-7.286 9.459,-13.4c3.566,-2.442 2.807,-2.838 0.891,-2.867c-0.147,-0.003 -0.298,-0.004 -0.453,-0.004c-1.886,0 -4.387,0.198 -5.516,1.365c0,0 1.118,-3.091 3.972,-3.435c0.304,-0.037 0.587,-0.052 0.847,-0.052c1.332,0 2.086,0.402 2.287,0.402c0.128,0 0.033,-0.163 -0.281,-0.695c-0.715,-1.217 -0.962,-2.044 -3.195,-2.044c-0.582,0 -1.299,0.057 -2.194,0.177c-4.33,0.58 -7.237,4.764 -7.237,4.764c0,0 -0.078,-0.625 -0.407,-0.625c-0.168,0 -0.401,0.164 -0.724,0.654c-0.954,1.452 -2.761,6.79 -2.761,6.79c0,0 -0.241,-0.326 -0.645,-0.326c-0.243,0 -0.546,0.117 -0.89,0.494c-0.921,1.003 -4.878,6.406 1.061,13.787c5.404,6.717 7.977,7.428 8.398,7.502c0.041,0.008 0.069,0.011 0.069,0.011c0,0 -0.13,0.114 -0.332,0.263c-0.443,0.327 -1.27,0.842 -2.116,0.842c-0.263,0 -0.525,-0.057 -0.778,-0.177c-0.105,-0.05 -0.208,-0.112 -0.308,-0.188c-0.024,-0.019 -0.048,-0.03 -0.072,-0.05c-1.487,-1.238 -4.78,-3.232 -5.808,-3.816c-1.029,-0.584 -2.096,-2.92 -2.314,-3.784c-0.217,-0.862 0.261,-2.744 0.103,-3.659c-0.079,-0.458 -0.262,-0.853 -0.488,-0.853c-0.226,-0.001 -0.494,0.389 -0.745,1.495c-0.503,2.22 -1.185,5.328 2.33,10.385c0.308,0.442 0.682,0.817 1.083,1.163c0.1,0.087 0.209,0.164 0.313,0.245c0.646,0.495 1.377,0.89 2.171,1.196c1.524,0.586 3.242,0.871 4.921,0.958c0.441,0.024 0.88,0.035 1.31,0.035c2.735,0 5.136,-0.414 6.003,-0.617c0,0 -6.287,1.846 -6.128,6.54c0.01,0.316 0.042,0.596 0.084,0.861c0.111,0.709 0.324,1.249 0.605,1.658c0.614,0.891 1.542,1.167 2.407,1.235c0.19,0.016 0.378,0.021 0.559,0.021c0.427,0 0.814,-0.03 1.105,-0.03c0.1,0 0.189,0.004 0.263,0.014c0.403,0.051 1.051,0.072 1.741,0.072c1.13,0 2.372,-0.056 2.833,-0.127c0.522,-0.081 -1.136,-0.575 -2.488,-0.983c-0.567,-0.171 -1.08,-0.327 -1.356,-0.432c-0.42,-0.157 -0.884,-0.38 -1.241,-0.652c-0.435,-0.333 -0.703,-0.744 -0.481,-1.225c0.08,-0.172 0.119,-0.328 0.143,-0.476c0.098,-0.607 -0.154,-1.046 0.059,-1.483c0.266,-0.545 -0.417,-1.216 8.683,-2.965c0,0 -3.324,1.548 -4.565,3.251c-0.201,0.277 -0.354,0.557 -0.422,0.835c-0.1,0.41 -0.09,0.776 -0.008,1.103c0.162,0.643 0.62,1.132 1.165,1.48c0.526,0.336 1.129,0.546 1.618,0.639c0.656,0.124 2.038,0.462 3.659,0.462c1.484,0 3.167,-0.284 4.671,-1.278c3.144,-2.08 5.049,-2.67 4.73,-2.92c-0.035,-0.027 -0.116,-0.039 -0.237,-0.039c-0.995,0 -4.657,0.851 -6.87,1.541c0,0 -1.125,-0.23 -1.984,-0.397c-0.331,-0.064 -0.626,-0.12 -0.797,-0.148c0,0 1.891,-0.924 3.714,-2.968c0.688,-0.77 1.363,-1.695 1.926,-2.796c0.014,-0.026 0.028,-0.05 0.042,-0.075c0,0 0.031,0.004 0.089,0.008c0.055,0.004 0.136,0.007 0.243,0.007c0.73,0 2.662,-0.178 5.76,-1.722c0.713,-0.243 1.334,-0.492 1.886,-0.739c2.751,-1.23 3.612,-2.393 3.612,-2.393c0.779,0.253 1.539,0.414 2.264,0.513c0.667,0.091 1.305,0.131 1.895,0.131c2.352,0 3.987,-0.578 3.987,-0.578c-0.358,0.508 -1.567,2.361 -1.567,2.361c-2.297,1.221 -6.018,3.594 -6.066,3.997c-0.007,0.066 0.034,0.096 0.125,0.096c0.463,0 2.199,-0.76 5.278,-1.406c3.689,-0.774 5.722,-4.289 6.436,-5.348c0.714,-1.06 1.422,-3.182 -0.339,-4.239c-0.412,-0.247 -0.982,-0.341 -1.614,-0.341c-0.57,0 -1.19,0.078 -1.79,0.189c-1.575,0.294 -3.007,0.824 -3.007,0.824c3.255,-2.231 5.12,-3.337 6.237,-3.858c0.693,-0.323 1.1,-0.423 1.366,-0.423c0.31,0 0.433,0.133 0.61,0.192c0.574,0.194 0.632,0.908 1.535,1.235c0.905,0.327 0.531,1.633 0.124,2.544c-0.379,0.852 -2.065,3.769 -1.783,3.769c0.02,0 0.048,-0.014 0.086,-0.042c0.603,-0.447 2.605,-2.363 3.255,-3.213c0.65,-0.85 4.086,-2.801 0.859,-6.215c-0.775,-0.821 -1.697,-1.254 -2.648,-1.45Z" style="fill:#10649b;fill-rule:nonzero;"/><path d="M64.1,74.481c0.48,0 0.934,0.099 1.355,0.263c0.282,0.11 0.546,0.251 0.79,0.422c0.026,0.019 0.048,0.042 0.075,0.062c0.287,0.215 0.54,0.468 0.756,0.754c0.147,0.196 0.274,0.405 0.381,0.629c0.233,0.487 0.374,1.025 0.374,1.601c0,0.56 -0.13,1.084 -0.351,1.561c-0.265,0.571 -0.668,1.06 -1.169,1.432c-0.355,0.262 -0.759,0.458 -1.195,0.582c-0.325,0.092 -0.661,0.158 -1.016,0.158c-0.011,0 -0.02,-0.004 -0.031,-0.004c-0.135,-0.001 -0.263,-0.025 -0.393,-0.039c-0.2,-0.024 -0.394,-0.06 -0.584,-0.113c-0.225,-0.063 -0.441,-0.145 -0.646,-0.248c-0.621,-0.309 -1.143,-0.78 -1.507,-1.366c-0.357,-0.571 -0.57,-1.24 -0.57,-1.963c0,-0.052 0.012,-0.102 0.015,-0.155c0.03,-0.719 0.253,-1.389 0.634,-1.946c0.245,-0.358 0.555,-0.665 0.906,-0.919c0.614,-0.443 1.362,-0.711 2.176,-0.711Zm36.909,-2.661c5.334,0 11.17,0.434 17.344,1.292c11.221,1.558 19.171,2.746 24.976,3.613c7.597,1.134 11.518,1.72 13.959,1.814c0.386,-0.12 1.019,-0.445 1.794,-0.891c0.283,-0.163 0.583,-0.34 0.9,-0.533c-0.363,-0.04 -0.74,-0.086 -1.128,-0.138c-2.934,-0.392 -6.586,-1.118 -11.492,-2.077c-16.505,-3.227 -14.767,-3.847 -15.264,-6.081c-0.497,-2.234 -2.482,-5.584 -3.971,-5.584c-1.489,0 -3.724,1.613 -9.184,3.474c-3.231,1.102 -4.898,1.421 -6.928,1.421c-1.402,0 -2.977,-0.152 -5.358,-0.303c-4.426,-0.284 -8.567,-0.412 -12.432,-0.412c-9.826,0 -17.883,0.828 -24.437,2.038c-0.382,0.071 -0.761,0.141 -1.132,0.214c-0.204,0.04 -0.405,0.081 -0.605,0.122c-0.18,0.037 -0.366,0.073 -0.544,0.11c-0.191,0.04 -0.375,0.081 -0.563,0.122c-0.372,0.08 -0.741,0.161 -1.103,0.243c-1.79,0.408 -3.446,0.843 -4.978,1.292c-0.07,0.021 -0.138,0.042 -0.207,0.063c-0.295,0.086 -0.586,0.174 -0.871,0.262c-0.06,0.019 -0.118,0.037 -0.176,0.055c-0.305,0.096 -0.606,0.191 -0.901,0.287c-0.044,0.015 -0.087,0.029 -0.131,0.044c-3.325,1.093 -5.969,2.23 -8.014,3.254c-7.942,3.971 -2.482,7.942 -2.482,7.942c0.409,0.589 0.888,1.14 1.4,1.671c0.454,0.472 0.933,0.928 1.453,1.356c0.093,0.076 0.189,0.149 0.283,0.224c0.519,0.411 1.065,0.798 1.627,1.168c0.242,0.158 0.482,0.319 0.73,0.47c1.858,1.132 3.868,2.045 5.792,2.761c0.358,0.133 0.712,0.261 1.062,0.381c0.355,0.121 0.706,0.238 1.05,0.344c0.066,0.021 0.13,0.038 0.196,0.059c0.326,0.1 0.651,0.197 0.962,0.284c0.184,0.051 0.356,0.093 0.533,0.14c0.146,0.038 0.295,0.079 0.437,0.114c0.254,0.063 0.492,0.118 0.73,0.172c0.738,0.167 1.396,0.29 1.953,0.369c0.091,0.014 0.197,0.032 0.283,0.043c0.225,0.028 0.505,0.057 0.826,0.084c0.337,0.029 0.721,0.059 1.147,0.088c0.088,-0.053 0.188,-0.114 0.28,-0.17c0.152,-0.093 0.303,-0.184 0.464,-0.282c0.386,-0.239 0.792,-0.498 1.206,-0.77c0.075,-0.05 0.151,-0.1 0.226,-0.15c0.453,-0.301 0.909,-0.613 1.358,-0.939c1.196,-0.871 2.32,-1.81 3.056,-2.701c0.558,-0.675 1.184,-1.456 1.729,-2.351c1.04,-2.651 1.369,-5.32 1.164,-6.576c-0.05,-0.211 -0.11,-0.426 -0.177,-0.644l-0.164,-0.49c-0.556,-1.531 -1.556,-3.218 -3.173,-5.079c0,0 6.743,-0.349 15.391,-0.486c3.001,-0.429 6.671,-0.734 11.104,-0.733Z" style="fill:#10649b;fill-rule:nonzero;"/><path d="M185.576,96.967c1.677,0 1.192,-1.303 0.187,-3.824c-0.773,-1.935 -2.162,-4.046 -3.284,-5.877c-0.965,-1.574 -1.733,-2.942 -1.733,-3.803c0,-1.014 0.713,-2.595 1.733,-4.856c0.676,-1.498 1.484,-3.286 2.322,-5.432c0.219,-0.562 0.44,-1.139 0.661,-1.75c0.085,-0.236 0.14,-0.438 0.21,-0.655c0.957,-3.011 0.363,-4.211 -1.224,-4.211c-0.547,0 -1.215,0.146 -1.969,0.398c-2.619,0.877 -6.333,3.107 -10.126,5.569c-0.502,0.325 -1.004,0.654 -1.506,0.985c-0.499,0.329 -0.997,0.659 -1.491,0.988c-1.353,0.9 -2.677,1.789 -3.932,2.618c-0.307,0.202 -0.609,0.4 -0.906,0.594c-0.501,0.328 -0.991,0.645 -1.459,0.944c-0.028,0.017 -0.054,0.034 -0.082,0.051c-0.508,0.324 -0.997,0.628 -1.459,0.907c-0.027,0.016 -0.054,0.033 -0.082,0.05c-0.274,0.165 -0.538,0.32 -0.793,0.465c-0.232,0.134 -0.458,0.261 -0.673,0.377c-0.839,0.454 -1.531,0.763 -2.048,0.895c-0.179,0.046 -0.344,0.078 -0.478,0.078c-0.01,0 -0.019,0 -0.029,-0.001c-4.468,-0.124 -12.659,-1.737 -39.465,-5.46c-6.614,-0.919 -12.233,-1.265 -16.941,-1.265c-4.441,0 -8.069,0.309 -10.97,0.734c-6.483,0.951 -9.308,2.489 -9.308,2.489c0.035,0.104 0.05,0.235 0.078,0.35c0.004,0.012 0.006,0.025 0.009,0.038c0.049,0.204 0.099,0.405 0.129,0.635c0.264,2.111 -0.292,5.265 -1.444,8.11c-0.163,0.404 -0.334,0.806 -0.521,1.195c-0.736,1.527 -2.233,3.185 -3.711,4.59c-0.215,0.205 -0.43,0.404 -0.643,0.598c0.531,0.019 1.079,0.039 1.635,0.058c6.055,0.21 13.464,0.358 18.542,0.358c1.04,0 1.98,-0.006 2.793,-0.02c7.694,-0.124 22.462,-0.868 22.462,-0.868c0,0 2.233,2.357 2.729,3.227c0.416,0.725 1.09,2.315 1.59,2.315c0.098,0 0.191,-0.063 0.273,-0.206c0.496,-0.868 2.234,-2.73 2.234,-3.599c0,-0.869 -2.731,-1.985 -2.731,-1.985c0.195,0.044 0.5,0.064 0.889,0.064c2.852,0 10.156,-1.057 10.156,-1.057l1.489,2.606l15.761,-3.847l0.124,-1.366c0,0 0.777,0.142 2.048,0.142c1.112,0 2.603,-0.108 4.282,-0.514c0.217,-0.052 0.473,-0.077 0.764,-0.077c0.597,0 1.346,0.11 2.195,0.296c0.484,0.106 1.008,0.242 1.555,0.396c0.088,0.025 0.179,0.051 0.267,0.077c0.501,0.145 1.021,0.304 1.561,0.48c0.091,0.029 0.178,0.056 0.27,0.086c0.51,0.169 1.034,0.348 1.57,0.537c1.958,0.692 4.043,1.497 6.071,2.295c0.61,0.239 1.21,0.477 1.802,0.71c0.615,0.243 1.218,0.48 1.802,0.709c2.118,0.827 4.002,1.539 5.349,1.938c0.134,0.039 0.242,0.067 0.369,0.103c1.425,0.407 2.438,0.618 3.097,0.618Z" style="fill:#10649b;fill-rule:nonzero;"/><path d="M71.549,127.855c-0.289,0.921 -1.011,1.679 -1.843,2.185c-0.882,0.538 -2.846,1.534 -4.28,1.534c-0.412,0 -0.779,-0.082 -1.065,-0.281c-0.005,-0.078 0.026,-0.147 0.091,-0.19c0.909,-0.625 2.03,-0.841 3.057,-1.247c0.863,-0.339 1.664,-0.818 2.421,-1.352c0.526,-0.373 1.058,-0.786 1.69,-0.916c-0.019,0.091 -0.043,0.181 -0.071,0.267Zm-0.846,10.74c-0.008,0.04 -0.016,0.08 -0.026,0.119c-0.003,0.011 -0.01,0.015 -0.02,0.015c-0.168,0 -1.295,-1.323 -1.329,-1.368c-0.503,-0.659 -1.039,-1.294 -1.603,-1.901c-1.128,-1.214 -2.374,-2.32 -3.715,-3.294c-0.048,-0.035 0.113,-0.048 0.323,-0.048c0.292,0 0.682,0.024 0.747,0.043c0.742,0.223 1.7,0.81 2.373,1.211c1.492,0.889 3.608,3.3 3.25,5.223Zm-1.411,0.468c-0.027,0.002 -0.055,0.003 -0.084,0.003c-0.527,0 -1.101,-0.341 -1.515,-0.62c-1.388,-0.936 -4.72,-4.055 -3.844,-6c0.181,0.006 0.274,0.106 0.37,0.256c1.594,2.484 3.315,4.319 5.6,6.134c-0.114,0.183 -0.296,0.211 -0.527,0.227Zm-5.889,-8.874c0,-0.062 0.006,-0.125 0.01,-0.187c-0.109,-0.33 -0.052,-0.677 -0.104,-1.015c-0.362,-2.331 -0.276,-4.464 -1.193,-6.74c-0.091,-0.227 -0.148,-0.559 0.079,-0.651c0.032,-0.014 0.067,-0.02 0.102,-0.02c0.065,0 0.131,0.019 0.193,0.04c0.883,0.303 1.513,1.123 1.804,2.01c0.291,0.887 0.288,1.841 0.24,2.772c-0.049,0.928 -0.069,3.578 -1.005,4.045c-0.104,-0.056 -0.126,-0.138 -0.126,-0.254Zm-0.042,4.063c-0.006,0.028 -0.011,0.058 -0.017,0.087c-0.234,1.251 -0.802,2.438 -1.63,3.407c-0.394,0.463 -0.927,0.982 -1.534,1.146c-0.167,0.044 -0.334,0.07 -0.475,0.07c-0.374,0 -0.569,-0.181 -0.099,-0.672c1.348,-1.406 2.1,-3.262 2.871,-5.051c0.206,-0.478 0.382,-0.664 0.522,-0.664c0.334,0 0.472,1.042 0.362,1.677Zm-4.206,3.968c0.015,0.133 -0.024,0.188 -0.089,0.188c-0.193,0 -0.615,-0.479 -0.59,-0.897c0.08,-1.273 0.525,-2.472 1.314,-3.473c0.195,-0.246 1.998,-1.999 2.667,-1.999c0.082,0 0.145,0.025 0.188,0.081c0.112,0.146 0.055,0.265 -0.064,0.404c-0.725,0.853 -1.429,1.724 -2.112,2.611c-0.76,0.987 -0.923,1.853 -1.303,2.98c-0.003,0.034 -0.015,0.07 -0.011,0.105Zm-3.833,-6.814c-0.538,-0.22 -1.087,-0.511 -1.376,-1.016c-0.29,-0.507 -0.12,-0.675 0.241,-0.675c0.686,0 2.065,0.606 2.324,0.677c1.944,0.526 4.07,0.57 5.968,1.109c0.061,0.018 0.135,0.031 0.135,0.109c0.001,0.457 -2.535,0.526 -2.877,0.54c-0.16,0.007 -0.321,0.01 -0.481,0.01c-0.824,0 -1.643,-0.091 -2.442,-0.278c-0.507,-0.119 -1.006,-0.278 -1.492,-0.476Zm-1.309,-2.506c0.013,-0.021 0.026,-0.042 0.039,-0.062c0.42,-0.644 1.093,-0.879 1.794,-0.879c0.481,0 0.975,0.11 1.412,0.274c1.536,0.577 3.009,1.319 4.384,2.213c0.295,0.192 0.559,0.394 0.745,0.697c-0.122,0.028 -0.254,0.041 -0.394,0.041c-1.031,0 -2.494,-0.68 -3.392,-0.917c-1.508,-0.401 -3.017,-0.801 -4.524,-1.201c-0.034,-0.008 -0.071,-0.019 -0.086,-0.051c-0.019,-0.037 0.001,-0.078 0.022,-0.115Zm6.556,-6.465c0.22,-0.298 0.563,-0.491 1.073,-0.491c0.004,0 0.009,0 0.014,0c-0.22,0 0.028,1.242 0.049,1.315c0.626,2.238 1.249,4.375 1.509,6.684c0.019,0.154 0.036,0.309 0.057,0.462c0.01,0.071 0.025,0.148 -0.04,0.195c-0.025,0.017 -0.05,0.024 -0.074,0.024c-0.049,0 -0.097,-0.028 -0.142,-0.055c-0.685,-0.399 -0.994,-1.043 -1.156,-1.782c-0.01,-0.016 -0.019,-0.033 -0.028,-0.052c-0.415,-1.298 -1.096,-2.474 -1.453,-3.802c-0.198,-0.736 -0.285,-1.86 0.191,-2.498Zm4.874,6.444c0.458,-0.416 0.972,-0.765 1.485,-1.114c0.94,-0.638 1.865,-1.099 2.917,-1.099c0.342,0 0.696,0.048 1.069,0.155c0.749,0.215 -0.06,0.479 -0.297,0.595c-0.334,0.162 -0.665,0.332 -1.003,0.486c-2.002,0.914 -3.882,1.533 -5.491,3.116c0.134,-0.725 0.551,-1.372 1.067,-1.897c0.082,-0.084 0.167,-0.164 0.253,-0.242Zm9.445,-6.734c-2.743,-3.32 -7.424,-4.125 -11.727,-4.125c-1.254,0 -2.476,0.069 -3.609,0.163c-4.528,0.378 -7.065,3.84 -9.209,7.571c-1.64,2.856 -1.502,5.47 -1.646,8.641c0.517,2.787 1.66,5.019 3.916,6.803c2.986,2.362 7.327,5.101 11.391,5.101c0.574,0 1.142,-0.054 1.701,-0.172c4.151,-0.878 7.584,-4.947 9.187,-8.671c0.307,-0.713 0.564,-1.448 0.935,-2.13c1.672,-3.083 2.405,-6.266 1.17,-9.77c-0.553,-1.233 -1.258,-2.383 -2.109,-3.411Z" style="fill:#10649b;fill-rule:nonzero;"/></g></svg>