<?xml version="1.0" encoding="UTF-8" standalone="no"?><!DOCTYPE svg PUBLIC "-//W3C//DTD SVG 1.1//EN" "http://www.w3.org/Graphics/SVG/1.1/DTD/svg11.dtd"><svg width="100%" height="100%" viewBox="0 0 480 240" version="1.1" xmlns="http://www.w3.org/2000/svg" xmlns:xlink="http://www.w3.org/1999/xlink" xml:space="preserve" xmlns:serif="http://www.serif.com/" style="fill-rule:evenodd;clip-rule:evenodd;stroke-linecap:round;stroke-linejoin:round;stroke-miterlimit:1.5;"><rect x="0" y="0" width="480" height="240" style="fill:#fff;"/><path d="M406.7,98.115c-1.325,-4.456 -2.098,-14.475 -0.7,-17.115c1.5,-2.833 7.167,2 10,1c2.833,-1 4.109,-5.41 7,-7c3.333,-1.833 9.667,-3.333 13,-4c2.288,-0.458 4.773,0.696 7,0c2.667,-0.833 6.272,-4.5 9,-5c2.503,-0.459 4.837,1.734 7.368,2c3.167,0.333 9.027,-0.167 11.632,0c1.372,0.088 2.882,0.201 4,1c1.167,0.833 1.706,2.949 3,4c2.667,2.167 11.167,5.5 13,9c1.833,3.5 -0.907,8.095 -2,12c-1.167,4.167 -2.833,9.167 -5,13c-2.1,3.716 -5.35,6.653 -8,10c-3.167,4 -6.667,13 -11,14c-4.333,1 -9.958,-5.414 -15,-8c-6.5,-3.333 -18.833,-8.833 -24,-12c-2.813,-1.724 -5.167,-5.833 -7,-7c-1.125,-0.716 -2.769,0.513 -4,0c-1.535,-0.639 -4.75,-1.517 -6.68,-3.214c1.917,3.116 4.057,6.277 6.68,8.214c10.833,8 42.833,25 52,31c1.626,1.064 4,4.667 3,5c-1,0.333 -6.5,-2.333 -9,-3c-1.959,-0.522 -5.333,-2 -6,-1c-0.667,1 1.524,4.62 2,7c0.5,2.5 1,5.333 1,8c0,2.667 0.484,5.76 -1,8c-1.877,2.833 -8.096,5.667 -10.263,9c-2.059,3.168 0.922,10.056 -2.737,11c-6.456,1.667 -28.833,-0.833 -36,-1c-2.333,-0.054 -4.974,-1.158 -7,0c-4.667,2.667 -17.333,12.167 -21,16c-1.629,1.703 -0.843,4.648 -1,7c-0.167,2.5 0.5,6.167 0,8c-0.372,1.364 -1.613,3.277 -3,3c-1.667,-0.333 -4.541,-3.525 -7,-5c-2.5,-1.5 -5.394,-2.552 -8,-4c-3,-1.667 -6.5,-4.667 -10,-6c-3.483,-1.327 -7.276,-2.149 -11,-2c-4.167,0.167 -11.333,1.333 -14,3c-2.058,1.286 0.041,5.688 -2,7c-2.333,1.5 -8.5,2 -12,2c-3.073,0 -6.5,-2.833 -9,-2c-2.5,0.833 -3.202,5.728 -6,7c-3.667,1.667 -10.628,3.767 -16,3c-5.833,-0.833 -12.542,-5.652 -19,-8c-7.333,-2.667 -19,-5.333 -25,-8c-4.143,-1.841 -7.339,-5.325 -11,-8c-4.333,-3.167 -11,-8.833 -15,-11c-2.702,-1.464 -5.986,-2.603 -9,-2c-4.167,0.833 -10.333,6.833 -16,7c-5.667,0.167 -14.5,-4.667 -18,-6c-1.123,-0.428 -2.031,-1.289 -3,-2c-2.5,-1.833 -9.167,-5.5 -12,-9c-2.727,-3.368 -5.535,-9.667 -5,-12c0.535,-2.333 5.399,-1.835 8.211,-2c2.833,-0.167 6.037,-0.059 8.789,1c3.465,1.333 7.5,5.905 12,7c6.167,1.5 20.667,3.167 25,2c2.915,-0.785 -0.167,-6.5 1,-9c1.167,-2.5 4,-5.667 6,-6c2,-0.333 4.667,4.167 6,4c1.333,-0.167 2.179,-3.214 2,-5c-0.333,-3.333 -3.833,-10.833 -4,-15c-0.139,-3.477 0.667,-8.333 3,-10c2.333,-1.667 8.167,-1 11,0c2.667,0.941 4.333,6 6,6c1.667,0 2.833,-5.167 4,-6c0.858,-0.613 2.079,1.512 3,1c1.5,-0.833 4.5,-5.667 6,-6c1.5,-0.333 1.333,4 3,4c1.877,0 5.402,-5.085 8.263,-4c4.833,1.833 14.421,12.5 20.737,15c5.318,2.105 11.5,0.836 17.158,0c11.281,-1.667 36.886,-4.5 50.526,-10c12.012,-4.843 23.597,-17.167 31.316,-23c5.109,-3.86 10.833,-9.833 15,-12c2.972,-1.546 7.25,-2.913 10,-1c1.573,1.094 3.077,3.438 4.7,6.115Zm-189.7,-39.115c2.833,-1.333 8.833,-2.833 13,-4c3.97,-1.112 9.833,-3.667 12,-3c2.167,0.667 0.103,4.821 1,7c1.167,2.833 3.167,8 6,10c2.833,2 7.754,0.169 11,2c6.5,3.667 20.333,16 28,20c5.449,2.843 14.702,2.167 18,4c2.105,1.17 0.289,7.667 1.789,7c1.5,-0.667 4.176,-8.667 7.211,-11c3.013,-2.316 7.269,-2.275 11,-3c6,-1.167 20.667,-4.5 25,-4c2.341,0.27 0.333,5.333 1,7c0.525,1.313 1.613,3.277 3,3c1.667,-0.333 4.833,-4.167 7,-5c1.867,-0.718 4.088,-0.588 6,0c2.167,0.667 5.5,2.667 7,4c1.114,0.99 1.529,2.586 2,4c0.5,1.5 2.258,3.857 1,5c-5.5,5 -24.404,20 -34,25c-7.125,3.712 -17.246,5 -23.579,5c-5.088,0 -12.851,-3.667 -14.421,-5c-1.482,-1.258 3.056,-3 5,-3c2.167,0 6.833,3.333 8,3c1.167,-0.333 0.63,-4.518 -1,-5c-3.667,-1.083 -16.333,-0.667 -21,-1.5c-2.568,-0.459 -4.98,-1.849 -7,-3.5c-10.5,-8.583 -46,-38.667 -56,-48c-2.18,-2.034 -1.561,-6.667 -4,-8c-2.439,-1.333 -8.298,-0.167 -10.632,0c-1.168,0.083 -2.307,0.667 -3.368,1c-1.006,0.316 -3.167,1.5 -3,1c0.167,-0.5 2.294,-3.197 4,-4Zm16,37c-3.73,-2.679 -10.298,-2.167 -13.632,-2c-2.343,0.117 -5.807,1.5 -6.368,3c-0.561,1.5 1.569,4.282 3,6c1.667,2 5,4.333 7,6c1.64,1.366 4.833,2.833 5,4c0.167,1.167 -2.35,2.767 -4,3c-3.544,0.5 -11.53,0.491 -17.263,0c-5.833,-0.5 -15.948,-3.667 -17.737,-3c-1.789,0.667 2.963,5.612 7,7c3.148,1.082 6.969,0.056 12.375,0c3.751,-0.039 10.304,4 12.625,4c3.35,0 6.833,-0.333 10,-1c3.094,-0.651 6.333,-2.167 9,-3c2.316,-0.724 5.333,-1.333 7,-2c1.116,-0.446 3.645,-0.986 3,-2c-2.333,-3.667 -11.895,-16.333 -17,-20Zm-53,-37c-1.833,1.667 -4.167,10.167 -5,13c-0.376,1.279 -0.833,3.667 0,4c0.833,0.333 3.234,-1.679 5,-2c1.833,-0.333 4.5,0.5 6,0c1.342,-0.447 3,-1.586 3,-3c0,-2 -1.5,-7 -3,-9c-1.342,-1.789 -4.345,-4.504 -6,-3Z" style="fill:#09723a;fill-opacity:0.117647;"/><path d="M266,102c0.5,-0.333 3.625,0.781 3,0c-0.667,-0.833 -4.667,-4 -7,-5c-2.166,-0.928 -5.667,-1.833 -7,-1c-1.333,0.833 -1.348,4.002 -1,6c0.377,2.167 1.517,5.108 3.263,7c2,2.167 6.281,3.833 8.737,6c2.305,2.033 4,5 6,7c1.841,1.841 3.61,3.968 6,5c3.86,1.667 13.825,4.167 17.158,5c0.919,0.23 2.842,0.833 2.842,0c0,-0.833 -1.105,-4.189 -2.842,-5c-2.5,-1.167 -10.465,-1.167 -12.158,-2c-1.078,-0.531 0.844,-2.67 2,-3c1.167,-0.333 4.167,1.5 5,1c0.833,-0.5 0.91,-3.026 0,-4c-1.246,-1.333 -5.64,-2.833 -7.474,-4c-1.302,-0.829 -2.55,-1.804 -3.526,-3c-1.088,-1.333 -1.833,-4 -3,-5c-1.043,-0.894 -3.167,-1.333 -4,-1c-0.833,0.333 -0.19,2.325 -1,3c-1,0.833 -3.5,2.667 -5,2c-1.5,-0.667 -3.5,-4.5 -4,-6c-0.333,-1 0.333,-2.833 1,-3c0.667,-0.167 2.5,2 3,2c0.5,0 -0.5,-1.667 0,-2Z" style="fill:#09726f;fill-opacity:0.290196;"/><path d="M213.768,170.609c0.427,-0.174 0.932,-0.384 1.232,-0.609c0.667,-0.5 1.5,-1.333 2,-2c0.447,-0.596 0.567,-1.393 1,-2c0.833,-1.167 2.833,-4 4,-5c0.8,-0.686 1.957,-1.149 3,-1c1.167,0.167 2.697,1.276 4,2c1.5,0.833 3.833,2.333 5,3c0.647,0.37 1.333,1 2,1c0.667,0 1.723,-0.308 2,-1c0.333,-0.833 -0.323,-2.706 0,-4c0.5,-2 1.667,-6.167 3,-8c1.143,-1.572 3.167,-3 5,-3c1.833,0 4.123,1.785 6,3c2.833,1.833 7.333,6.333 11,8c3.393,1.542 8.333,2 11,2c1.795,0 3.833,-1.333 5,-2c0.819,-0.468 1.578,-1.157 2,-2c0.156,-0.312 0.293,-0.685 0.413,-1.093c-0.056,-0.187 -0.126,-0.374 -0.212,-0.56c-0.615,-1.325 -4.046,-2.609 -4.201,-3.347c-0.343,-1.631 4.018,-2.681 3,-4c-1.84,-2.384 -1.871,-6.906 -6.659,-11c-4.84,-4.138 -14.454,-7.864 -19.36,-13.298c-9.581,-10.612 -16.358,-23.336 -20.981,-28.702c-3.264,-3.788 -6,-9.504 -9,-12c-2.429,-2.021 -5.847,-3.186 -9,-2.975c-4.982,0.334 -13.957,3.208 -20.895,4.975c-6.771,1.725 -15.869,6.842 -25.263,9.221c-4.199,1.063 -8.596,0.779 -12.631,0.779c-13.851,0 -34.685,-7.504 -45.211,-10c-6.041,-1.432 -12.447,-2.475 -17.947,-4.975c-5.489,-2.494 -11.342,-7.187 -15.053,-10.025c-2.661,-2.035 -4.624,-4.871 -7.211,-7c-3.457,-2.845 -10.066,-8.569 -13.531,-10.069c-2.244,-0.971 -5.176,-0.213 -7.258,1.069c-2.455,1.511 -6.593,4.459 -7.474,8c-0.912,3.667 0.44,9.552 2,14c2.106,6 6.399,15.042 10.632,22c5.982,9.833 21.869,25.817 25.263,37c3.557,11.717 12.846,17.607 12.632,22c-0.278,5.682 1.616,19.225 8.947,27c4.49,4.762 -3.476,12.623 -4.947,19c-0.088,0.38 -5.175,-3.24 -5.262,-2.858c-0.343,1.503 -4.383,1.26 -4.263,3.149c0.16,2.507 3.032,1.616 4.263,4.724c0.749,1.894 -6.838,4.629 -6.655,7.298c0.061,0.9 4.175,2.115 3.864,4.46c-0.405,3.052 -5.156,7.325 -3.864,8.212c1.191,0.818 8.001,-3.49 7.917,-2.985c-0.186,1.109 5.153,-5.133 8.947,-4.183c3.241,0.81 4.98,6.761 4.772,8.188c-0.461,3.161 1.36,16.179 -2.655,14.253c-13.587,-6.517 -29.061,-13.589 -15.117,7.742l-97,3l-17,-12l0,-283l25,24l5.632,79c0,0 7.629,10.474 11.631,8c4.044,-2.5 8.421,-18.667 12.632,-23c3.016,-3.104 9.447,-0.5 12.631,-3c3.185,-2.5 1.929,-12 6.474,-12c4.912,0 15.919,7.036 23,12c7.132,5 14.791,15 19.791,18c2.918,1.751 7.159,-1.509 10.209,0c3.368,1.667 6.447,7.667 10,10c2.129,1.398 4.575,2.191 7.064,2.866c1.421,0.386 2.855,0.734 4.252,1.134c4.666,1.338 11.002,3.36 16.684,4.025c7.114,0.834 17.393,2.039 26,0.975c9.474,-1.171 21.952,-8.655 30.842,-8c6.479,0.478 15.404,-9.667 19.158,-11c1.417,-0.503 2.202,2.5 3.368,3c1.113,0.477 2.506,-0.446 3.632,0c2.105,0.833 6.777,2.385 9,5c2.833,3.333 5.438,9.946 8,15c3.211,6.333 6.93,17.417 11.263,23c3.698,4.765 10.026,6.733 14.737,10.5c5.211,4.167 9.561,12.583 16.526,14.5c6.965,1.917 16.871,-1.781 25.263,-3c9.755,-1.417 24.843,-1.667 33.264,-5.5c6.297,-2.867 2.783,-1.258 8.863,-4c1.334,-0.601 2.772,-2.574 5.084,-4.056c0.689,-0.441 3.138,-2.676 3.302,-3.444c0.449,-2.102 9.435,-6.473 15.698,-10.516c2.601,-1.679 6.437,-7.369 10,-8.263c5.648,-1.418 8.531,-5.997 12.211,-7.221c2.088,-0.695 8.58,0.534 10.814,-0.738c1.852,-1.054 4.383,-6.765 4.975,-6.237c0.625,0.559 -0.185,2.486 -1.146,4.746c0.738,0.191 1.523,0.433 2.146,0.229c1.526,-0.5 3.106,-2.563 5,-3c2.167,-0.5 5.37,0.438 8,0c2.906,-0.484 8.784,-3.002 9.906,-3.007c0.323,-0.148 0.949,-0.063 1.421,-0.105c2.826,-0.248 5.63,-1.002 8.458,-0.998c2.253,0.044 3.348,2.973 2.886,5.515c-0.371,2.043 -1.995,3.867 -1.718,5.388c0.288,1.58 1.013,3.027 1.715,4.706c0.343,0.82 0.454,0.358 0.599,0.276c1.615,-0.912 3.26,-1.745 4.932,-2.53c0.76,-0.347 0.891,-0.375 1.322,-0.518c4.713,-1.573 9.131,-4.482 13.827,-4.147c1.568,0.112 3.364,0.919 3.867,2.128c0.637,1.53 -0.586,3.103 -1.597,4.51c-0.974,1.354 -2.621,1.679 -4.476,1.833c-1.698,0.167 -2.735,2.631 -2.2,4.48c0.231,0.798 1.83,0.889 2.904,1.139c2.725,0.608 5.575,0.043 8.235,-0.767c0.128,-0.038 0.128,-0.038 0.256,-0.073c0.892,-0.232 1.976,-0.274 2.648,0.535c0.317,0.383 -0.028,0.97 -0.716,0.334c-0.834,-0.712 -2.002,-0.065 -2.813,0.187c-0.119,0.036 -0.119,0.036 -0.238,0.07c-3.027,0.828 -6.123,0.95 -9.333,0.017c-2.076,-0.604 -2.188,-3.606 -0.865,-5.64c0.914,-1.405 3.308,-0.684 4.677,-1.322c1.366,-0.637 2.107,-2.353 2.669,-3.838c0.674,-1.779 -2.276,-3.21 -5.263,-2.738c-3.313,0.524 -6.275,2.468 -9.479,3.44c-2.816,0.837 -5.523,2.182 -8.047,3.586c-0.834,0.449 -1.463,-0.285 -2.131,-2.329c-0.499,-1.424 -1.498,-2.874 -1.251,-4.239c0.47,-2.592 3.03,-5.283 1.332,-8.2c-0.099,-0.17 -0.215,-0.33 -0.351,-0.471c-1.246,-1.289 -3.769,-0.436 -5.996,-0.116c-1.64,0.242 -3.276,0.567 -4.93,0.591c-0.064,0.001 -0.268,-0.05 -0.411,-0.156c-0.863,0.942 -3.573,2.826 -4.839,3.459c-1.52,0.76 -3.32,0.742 -5,1c-2.167,0.333 -5.544,-0.091 -8,1c-2.596,1.154 -10.071,6.034 -10.158,6c-5.588,-2.185 3.223,8.446 5.158,10c2.889,2.32 6.737,7.678 12.403,12.891c3.847,3.541 10.631,5.952 13.597,8.109c5.788,4.21 13.667,7 19,10c4.435,2.495 12.772,7.333 13,8c0.228,0.667 -8.137,-1.855 -11.632,-4c-5.692,-3.494 -15.836,-7.55 -23.368,-10c-3.614,-1.176 -7.262,-5.602 -10.597,-8.317c-4.188,-3.409 -7.884,-5.271 -10.403,-7.683c-1.952,-1.869 -4.064,-5.128 -5.239,-7.516c-0.354,-0.142 -0.668,-0.305 -0.919,-0.484c-2.333,-1.667 -5.535,-8.167 -7.842,-10c-1.587,-1.261 -4.303,-2.109 -6,-1c-3.57,2.333 -11.921,11.333 -15.421,15c-2.06,2.158 -5.031,4.995 -5.579,7c-1.012,3.704 -8.053,7 -11,9c-2.021,1.371 -5.184,1.667 -6.684,3c-0.115,0.102 -0.208,0.211 -0.284,0.326c1.481,1.414 2.794,3.062 3.968,3.674c1.507,0.786 3.48,0.24 5,1c1.667,0.833 3.333,3.333 5,4c1.547,0.619 3.667,-0.333 5,0c1.166,0.291 2.262,1.051 3,2c1.167,1.5 2.333,5.5 4,7c1.567,1.41 4.167,1.333 6,2c1.379,0.501 4.29,1.408 4.943,1.814c0.538,-0.056 1.073,-0.151 1.609,-0.226c0.166,-0.022 0.166,-0.022 0.332,-0.042c1.379,-0.146 2.798,0.143 3.873,0.992c1.108,0.875 2.045,2.09 3.411,2.345c2.39,0.446 5.208,-0.968 5.87,-3.981c0.293,-1.333 -0.228,-2.389 0.892,-3.596c0.824,-0.887 1.604,-1.814 2.884,-1.803c0.611,0.038 1.125,0.502 1.368,1.054c0.573,1.298 -0.529,2.941 -0.062,4.198c0.23,0.62 2.154,1.162 3.442,1.082c1.703,-0.106 3.234,-2.505 4.083,-0.316c0.65,1.748 -0.078,1.357 -0.289,1.182c-0.366,-0.302 -0.311,-1.298 -0.705,-1.287c-0.935,0.058 -1.829,1.094 -3.043,1.169c-1.216,0.076 -2.433,-0.353 -3.545,-0.919c-1.541,-0.784 0.47,-4.265 -0.968,-5.292c-0.922,-0.658 -2.746,1.218 -3.122,2.151c-0.432,1.073 0.116,2.588 -1.026,4.34c-1.336,2.052 -3.604,3.453 -6.453,2.63c-1.678,-0.485 -2.658,-2.402 -4.324,-3.034c-1.579,-0.6 -3.293,0.114 -4.881,0.146c0,0 -0.599,-0.365 -0.415,-0.59c-1.981,-0.082 -5.933,-0.499 -7.874,-1.017c-2.161,-0.576 -4.833,-1.833 -6,-3c-0.972,-0.972 0,-3.5 -1,-4c-1,-0.5 -3.5,1.5 -5,1c-1.5,-0.5 -2.455,-2.919 -4,-4c-1.667,-1.167 -3.898,-2.236 -6,-3c-2.453,-0.891 -6.386,-1.682 -8.72,-2.348c-1.288,-0.369 -1.984,-1.499 -3.364,-1.78c-1.88,0.373 -4.026,1.889 -6.136,2.088c-0.026,0.942 0.22,2.222 0.22,3.04c0,1 -0.5,2.167 0,3c0.5,0.833 2.218,1.087 3,2c1,1.167 2.333,3.333 3,5c0.631,1.578 0.833,3.333 1,5c0.166,1.658 -0.333,3.5 0,5c0.323,1.455 0.946,2.946 2,4c1.305,1.305 5.473,4.042 7.219,5.327c0.094,-0.152 0.332,-0.27 0.585,-0.269c1.806,0.027 3.451,0.539 4.895,1.919c1.753,1.628 5.013,1.159 7.675,1.306c1.798,0.113 3.463,0.536 5.213,1.412c1.309,0.639 2.879,0.467 4.555,0.86c2.354,0.553 4.909,2.142 6.35,2.009c1.456,-0.134 2.062,-1.681 3.865,-2.044c0.584,-0.117 1.174,-0.176 1.768,-0.217c2.706,-0.166 5.481,-1.137 7.71,-0.923c2.761,0.265 5.363,2.899 7.139,1.211c1.178,-1.121 1.674,-2.797 3.809,-2.712c1.304,0.052 2.41,0.738 3.387,1.843c1.369,1.507 4.285,1.452 6.274,1.364c1.278,-0.101 2.148,-1.94 3.617,-1.513c0,0 0.187,0.064 0.256,0.197c0.376,0.727 -1.171,0.61 -2.544,1.56c-1.222,0.822 -3.032,0.386 -4.627,0.211c-0.911,-0.109 -1.824,-0.277 -2.665,-0.647c0,0 -1.983,-2.762 -4.44,-2.237c-1.363,0.292 -1.876,2.569 -3.605,3.154c-2.437,0.824 -4.904,-2.197 -8.388,-1.574c-1.066,0.19 -2.106,0.515 -3.184,0.643c-2.166,0.255 -4.475,-0.059 -6.019,1.161c-0.849,0.67 -1.744,1.4 -2.866,1.252c-0.386,-0.051 -0.76,-0.167 -1.12,-0.313c-0.117,-0.047 -0.232,-0.098 -0.347,-0.15c-0.149,-0.069 -0.298,-0.141 -0.445,-0.214c-0.318,-0.156 -0.634,-0.314 -0.96,-0.452c-2.234,-0.901 -4.991,-0.844 -6.935,-1.423c-1.335,-0.398 -2.369,-1.249 -3.953,-1.509c-2.882,-0.475 -5.923,0.063 -8.706,-0.872c-1.413,-0.475 -2.215,-2.048 -3.834,-2.379c-0.725,-0.148 -1.454,-0.182 -1.861,-0.188c0.118,0.102 0.182,0.173 0.182,0.207c0,0.333 -6,-2.167 -8,-4c-1.981,-1.816 -3.002,-4.505 -4,-7c-1,-2.5 -0.833,-5.833 -2,-8c-1.117,-2.075 -3.627,-3.084 -5,-5c-1.349,-1.882 -4.825,-5.063 -5.932,-7.741c-9.366,-1.05 -25.178,6.521 -33.997,6.687c-3.831,0.072 -7.061,-1.646 -9.071,-0.946c-2.37,0.826 -5.711,1.544 -5.654,4.548c0.012,0.629 0.164,1.31 0.393,2.015c0.105,0.144 0.193,0.291 0.261,0.437c0.281,0.602 0.571,1.403 0.869,2.351c0.767,1.723 1.483,3.337 1.219,4.393c1.549,6.042 3.263,13.868 5.07,17.256c1.676,3.143 6.737,3.833 8.842,6c1.849,1.903 2.623,5.333 3.789,7c0.84,1.2 1.746,3 3.211,3c1.535,0 4.43,-2.985 6,-3c1.525,-0.014 3.669,0.737 4.421,2c0.61,1.025 1.579,2.833 1.579,4c0,1.13 -1.746,2 -1.579,3c0.167,1 1.649,3 2.579,3c0.93,0 2,-2.333 3,-3c0.877,-0.585 1,-0.667 3,-1c0.317,-0.053 1.89,0.744 3.335,1c1.154,0.205 2.226,-0.123 2.509,-0.122c1.197,0.005 2.394,-1.878 3.156,-1.878c0.667,0 1.434,0.352 2,0c2.039,-1.266 6.543,-1.097 8,0c1.332,1.002 -0.553,4.667 1,5c1.553,0.333 5.982,-2.333 8.316,-3c1.85,-0.529 4.403,-2 5.684,-1c1.281,1 1.464,4.984 2,7c0.545,2.05 3.604,2.359 4.947,4c1.5,1.833 5.044,7.667 4.053,7c-0.589,-0.396 -1.527,-3.382 -4.053,-6.229c-1.724,-1.945 -5.135,-3.824 -5.947,-4.771c-0.782,-0.913 -0.609,-2.747 -2,-3c-0.629,-0.114 -0.468,-2.052 -1.402,-1.914c-1.787,0.264 -4.922,2.805 -6.598,2.914c-1.025,0.067 -2.249,0.923 -3.421,1c-1.61,0.106 -3.123,-0.614 -3.895,-1c-1.21,-0.605 0.097,-3.167 -0.684,-4c-0.781,-0.833 -2.833,-1 -4,-1c-1.054,0 -2.037,0.572 -3,1c-1.5,0.667 -4.333,2.833 -6,3c-1.483,0.148 -2.667,-2.333 -4,-2c-1.333,0.333 -2.667,3 -4,4c-1.193,0.894 -2.667,2 -4,2c-1.333,0 -3.333,-1.167 -4,-2c-0.625,-0.781 -0.1,-2.005 0,-3c0.07,-0.7 -0.742,-1.826 -0.548,-3c0.268,-1.622 1.548,-3.323 1.548,-4c0,-0.333 -0.684,-0.105 -1,0c-1.5,0.5 -6.167,2.333 -8,3c-0.991,0.36 -2.142,0.387 -3,1c-1.167,0.833 -3.5,2.667 -4,4c-0.483,1.287 0.667,3 1,4c0.142,0.427 0.659,1.006 0.936,1.435c0.083,0.067 0.167,0.133 0.255,0.193c1.185,0.778 2.648,1.41 2.701,2.761c0.068,1.709 -1.81,2.878 -3.726,2.629c-2.689,-0.35 -4.548,-2.691 -5.953,-4.585c-0.885,-1.152 -2.747,0.282 -3.378,1.596c-0.926,1.93 -0.126,4.124 0.932,5.948c0.348,0.617 0.633,1.364 0.301,2.012c-0.816,1.591 -3.51,1.507 -5.228,0.275c-0.823,-0.564 -1.643,3.581 -3.7,0.707c-0.076,-0.107 -0.146,-0.218 -0.209,-0.334c-0.087,-0.161 -0.163,-0.327 -0.231,-0.497c-0.079,-0.2 -0.147,-0.405 -0.209,-0.611c-0.088,-0.293 -0.168,-0.587 -0.257,-0.88c-0.336,-1.076 -1.143,-1.747 -3.432,-1.319c-0.667,0.134 -0.991,0.503 -1.281,0.454c-0.392,-0.068 -0.304,-0.646 0.202,-0.9c1.437,-0.717 3.351,-0.914 4.33,-0.068c1.205,1.04 0.742,3.324 2.249,4.237c0.828,0.502 1.298,-2.55 2.968,-1.403c1.716,1.23 4.836,0.999 4.073,-0.848c-0.472,-1.144 -1.367,-2.042 -1.61,-3.491c-0.35,-2.09 0.297,-4.421 2.282,-5.664c0.613,-0.383 1.415,-0.691 2.119,-0.298c0.887,0.496 1.173,1.587 1.858,2.294c0.564,0.564 0.596,0.584 0.851,0.81c1.548,1.371 4.025,2.954 5.746,1.225c0.624,-0.627 0.703,-1.745 -0.247,-2.44c-0.55,-0.402 -0.998,-0.798 -1.647,-1.206c-0.872,-0.001 -2.973,-0.454 -3.695,-1.032c-0.823,-0.658 -1,-1.946 -1,-3c0,-1.167 0.5,-3.167 1,-4c0.383,-0.639 1.404,-0.553 2,-1c0.667,-0.5 1.667,-1.333 2,-2c0.298,-0.596 0.234,-1.376 0,-2c-0.5,-1.333 -1.5,-5.167 -3,-6c-1.5,-0.833 -4.86,0.333 -6,1c-0.897,0.524 -0.842,1.961 -0.842,3c0,1.167 0.868,2.833 0.842,4c-0.024,1.054 -0.333,2.333 -1,3c-0.667,0.667 -2,1.333 -3,1c-1,-0.333 -3,-2.667 -3,-3c0,-0.333 2.167,0.833 3,1c0.654,0.131 1.5,0.333 2,0c0.5,-0.333 1,-1.333 1,-2c0,-0.667 -0.877,-1.265 -1,-2c-0.167,-1 -0.167,-3 0,-4c0.123,-0.735 0.667,-1.5 1,-2c0.261,-0.392 0.667,-0.667 1,-1c0.333,-0.333 1.25,-0.6 1,-1c-0.833,-1.333 -4.33,-4.42 -6,-7c-1.833,-2.833 -4,-8.167 -5,-10c-0.226,-0.414 -0.553,-0.851 -1,-1c-0.5,-0.167 -1.381,-0.248 -2,0c-0.833,0.333 -2,1.5 -3,2c-0.943,0.471 -2.333,0.667 -3,1c-0.422,0.211 -1,0.529 -1,1c0,0.5 0.854,1.269 1,2c0.167,0.833 0.164,2.014 0,3c-0.167,1 -0.342,2.177 -1,3c-0.254,0.318 -0.75,0.708 -1.267,1.06c0.162,0.209 0.051,0.551 -0.512,0.609c-0.262,0.032 -0.518,0.099 -0.774,0.169c-0.27,0.14 -0.447,0.208 -0.447,0.162c0,-0.011 0.01,-0.028 0.029,-0.053c-0.87,0.191 -1.848,0.143 -2.066,0.667c-0.518,1.245 1.516,2.76 0.532,4.308c-1.221,1.922 -5.192,1.795 -8.043,0.693c-1.027,-0.397 -0.461,-2.368 -2.671,-1.897c-1.464,0.312 -2.814,2.315 -1.586,3.318c1.41,1.151 3.8,1.101 4.238,2.437c0.259,0.787 -0.753,1.536 -1.798,1.606c-1.932,0.13 -3.804,-1.033 -5.362,-2.377c-0.941,-0.775 -2.84,0.092 -3.175,1.447c0,0 -0.073,0.189 -0.207,0.251c-0.366,0.168 -0.598,-0.372 -0.371,-0.872c0.715,-1.578 3.11,-2.371 4.269,-1.371c1.158,1.057 2.545,1.724 3.778,2.052c1.334,0.356 4.263,-0.14 0.137,-1.594c-1.168,-0.422 -2.643,-0.928 -2.774,-2.346c-0.256,-2.744 3.894,-4.557 5.048,-2.549c0.296,0.537 0.237,1.065 1.282,1.356c1.999,0.559 4.237,0.743 6.136,-0.189c0.116,-0.057 0.23,-0.121 0.327,-0.207c1.006,-0.885 -1.231,-2.642 -0.431,-4.403c0.467,-1.028 2.069,-0.948 3.345,-1.262c0.244,-0.056 0.392,-0.086 0.494,-0.101c0.732,-0.661 1.597,-1.46 1.869,-1.914c0.343,-0.572 0.162,-1.353 0,-2c-0.167,-0.667 -0.473,-1.473 -1,-2c-0.667,-0.667 -1.88,-1.564 -3,-2c-3,-1.167 -10.667,-2.667 -15,-5c-4.171,-2.246 -8.667,-8.167 -11,-9c-1.57,-0.561 -2.255,2.509 -3,4c-0.365,0.729 -0.633,1.65 -0.89,2.594l-0.22,0.812c-0.257,0.944 -0.525,1.865 -0.89,2.594c-0.745,1.491 -2.5,2.833 -3,4c-0.394,0.919 -0.316,2.051 0,3c0.333,1 1.667,2.167 2,3c0.248,0.619 -0.331,1.421 0,2c0.667,1.167 4,4.667 4,5c0,0.081 -0.188,0.004 -0.483,-0.173c0.034,0.719 -0.282,1.679 -0.732,2.02c-1.369,1.038 -3.278,-0.13 -4.563,0.2c-0.977,0.251 -1.411,1.187 -2.322,2.053c-0.587,0.51 -0.824,-0.223 -0.321,-0.737c1.013,-1.065 2.038,-2.206 3.49,-2.086c1.17,0.097 2.588,0.641 3.333,-0.087c0.486,-0.476 0.179,-0.987 0.17,-1.846c0.002,-0.047 0.011,-0.092 0.028,-0.134c-0.959,-0.692 -2.138,-1.656 -2.6,-2.21c-0.675,-0.81 -0.5,-2.167 -1,-3c-0.212,-0.354 -0.529,-0.626 -0.858,-0.888l-0.284,-0.224c-0.329,-0.262 -0.646,-0.534 -0.858,-0.888c-0.5,-0.833 -0.833,-2.167 -1,-3c-0.131,-0.654 0.521,-1.584 0,-2c-1.667,-1.333 -8,-5 -10,-6c-0.596,-0.298 -1.404,-0.298 -2,0c-1,0.5 -3,1.833 -4,3c-0.97,1.132 -1.167,3 -2,4c-0.769,0.923 -2.167,1.667 -3,2c-0.396,0.159 -1.105,0.182 -1.564,0.135c-0.071,0.021 -0.155,0.035 -0.249,0.041c-1.955,0.145 -4.481,0.946 -3.798,2.861c0.539,1.511 2.126,3.945 -1.858,3.957c-1.715,0.005 -3.163,-1.055 -4.29,-2.689c-0.86,-1.223 -0.947,-1.739 -2.241,-1.389c-0.322,0.087 -0.62,0.242 -0.888,0.44c-0.096,0.071 -0.189,0.148 -0.278,0.228c-0.115,0.104 -0.225,0.215 -0.331,0.33c-0.132,0.145 -0.258,0.297 -0.379,0.452c-1.136,1.455 -2.076,3.698 -4.019,3.119c-0.389,-0.116 -0.757,-0.291 -1.135,-0.438c-2.101,-0.784 -3.489,3.013 -5.088,2.875c-2.025,-0.176 -2.043,-3.545 -2.687,-3.696c-0.079,-0.018 -0.159,-0.036 -0.238,-0.052c-0.25,-0.049 -0.504,-0.081 -0.758,-0.092c-1.353,-0.055 -2.362,0.657 -3.428,1.797c-0.975,0.99 -2.768,1.036 -3.825,0.191c-0.767,-0.613 -0.69,-1.842 -2.048,-1.988c-1.577,-0.169 -3.121,0.617 -4.605,1.257c0,0 -0.174,0.056 -0.305,-0.004c-0.265,-0.122 -0.288,-0.519 0.008,-0.685c2.35,-1.013 5.532,-2.465 6.774,-0.268c0.12,0.213 0.214,0.439 0.323,0.657c0.607,1.164 2.384,1.208 3.291,0.149c0.772,-0.902 2.738,-2.184 4.852,-1.722c1.349,0.295 1.048,2.53 2.152,3.444c0.847,0.702 2.005,-1.168 2.863,-1.911c0.592,-0.512 1.319,-0.947 2.076,-0.883c1.29,0.108 2.176,1.686 3.674,-0.114c1.378,-1.655 2.428,-4.402 4.833,-3.856c1.263,0.286 1.913,1.59 2.585,2.555c0.334,0.467 0.38,0.501 0.598,0.686c1.441,1.228 4.572,1.453 4.298,-0.264c-0.173,-1.081 -1.02,-2.042 -0.772,-3.118c0.398,-1.722 2.658,-2.494 4.753,-2.586c0,0 0.123,-0.005 0.227,0.005c0.117,0.037 0.2,0.104 0.245,0.185Z" style="fill:url(#_Linear1);stroke:#a8caff;stroke-width:1px;"/><defs><linearGradient id="_Linear1" x1="0" y1="0" x2="1" y2="0" gradientUnits="userSpaceOnUse" gradientTransform="matrix(92.6842,-33,33,92.6842,13,119)"><stop offset="0" style="stop-color:#093f6e;stop-opacity:1"/><stop offset="1" style="stop-color:#c8e3fb;stop-opacity:1"/></linearGradient></defs></svg>